**ABCDEFGHIJKLMNOPQRSTUVWXYZabcdefghijklmnopqrstuvwxyz**************************
**PARASOLID !"#$%&'()*+,-./:;<=>?@[\]^_`{|}~0123456789**************************
**PART1;
MC=AMD64;
MC_MODEL=Intel64 Family 6 Model 186 Stepping 2, GenuineIntel;
MC_ID=unknown;
OS=Windows_NT;
OS_RELEASE=unknown;
FRU=Parasolid Version 35.1, build 256,  4-22-2024;
APPL=SOLIDWORKS 2024-2024282;
SITE=;
USER=unknown;
FORMAT=text;
GUISE=transmit;
KEY=L_bracket_right_x14;
FILE=L_bracket_right_x14.x_t;
DATE=Wed Aug 20 12:06:53 2025;
**PART2;
SCH=SCH_3501256_35102;
USFLD_SIZE=0;
**PART3;
**END_OF_HEADER*****************************************************************
T51 : TRANSMIT FILE created by modeller version 350125623 SCH_3501256_35102_1300
6231 0 12 36 CCCI7 lattice222 0 CCCI4 mesh1006 0 I8 polyline1008 0 CCCCCCCDI5 ow
ner1040 0 CCCI16 boundary_lattice222 0 CCCI13 boundary_mesh1006 0 I17 boundary_p
olyline1008 0 CCCA16 index_map_offset0 0 1 dA9 index_map82 0 A17 node_id_index_m
ap82 0 A20 schema_embedding_map82 0 A5 child12 0 A14 lowest_node_id0 0 1 dA16 me
sh_offset_data206 0 Z1 2272 2 3 0 0 0 0 0 0 0 1e3 1e-8 0 4 0 1 0 1 1 5 0 6 7 8 0
 0 9 10 11 0 0 0 0 0 0 0 81 255 2 2 2192 12 1 13 0 0 0 0 14 70 11 CI9 list_type0
 0 1 uI10 notransmit0 0 1 lCCCDCCDI12 finger_index0 0 1 dI12 finger_block1012 0
 CZ3 0 4 T1 0 0 11 20 1 15 15 13 255 5 99 0 1 0 16 0 0 17 0 52 255 6 1851 18 19
 20 0 0 -.0035 .000674999999999898 -.0058 0 1 0 .0025 .70710678118655 .707106781
186545 0 0 1 31 255 7 1819 0 10 21 0 0 +.0035 .000674999999999898 -.0058 0 1 0 0
 0 1 .0025 29 255 8 532 0 11 22 0 .075 -.003175 -.01843833454217765 19 9 CCCCCCI
5 frame230 0 CA5 owner12 0 Z9 33 0 1 17 0 23 0 V0 16 255 10 1816 0 ?24 0 25 7 0
 0 1 18 255 11 530 0 26 0 27 8 ?1 17 255 26 0 28 29 30 11 31 32 0 33 -18 27 515
 0 34 11 35 22 ?1 17 34 0 36 37 38 27 39 40 0 41 +18 35 512 0 31 27 42 43 ?1 29
 22 517 0 27 43 8 .069275 -.003175 .000519167271088792 29 43 514 0 35 44 22 .069
275 -.003175 -.01211916727108882 29 44 499 0 42 45 43 .075 .003175 -.01843833454
217765 18 42 497 0 46 35 47 44 ?1 29 45 496 0 47 48 44 .069275 .003175 .00051916
7271088792 18 47 494 0 49 42 50 45 ?1 29 48 493 0 50 51 45 .069275 .003175 -.012
11916727108882 18 50 491 0 52 47 53 48 ?1 29 51 484 0 53 54 48 .075 .003175 .006
8383345421776 18 53 482 0 55 50 56 51 ?1 29 54 481 0 56 57 51 .075 -.003175 .006
8383345421776 18 56 479 0 58 53 59 54 ?1 29 57 75 0 60 61 54 .075 -.003175 .0508
 18 60 66 0 62 63 64 57 ?1 29 61 76 0 64 65 57 -.075 -.003175 .0508 18 64 67 0 6
6 60 67 61 ?1 29 65 32 0 59 68 61 .075 .003175 .0508 18 59 30 0 69 56 70 65 ?1 2
9 68 29 0 70 71 65 -.075 .003175 .0508 18 70 27 0 72 59 73 68 ?1 29 71 26 0 73 7
4 68 -.075 .003175 -.0508 18 73 24 0 75 70 63 71 ?1 29 74 23 0 63 76 71 .075 .00
3175 -.0508 18 63 21 0 77 73 60 74 ?1 29 76 1130 0 67 78 74 -.075 -.003175 -.044
45 18 67 1057 0 79 64 80 76 ?1 29 78 1133 0 80 81 76 .075 -.003175 -.04445 18 80
 1064 0 82 67 83 78 ?1 29 81 1138 0 83 84 78 -.075 -.098425 -.04445 18 83 1058 0
 85 80 86 81 ?1 29 84 1139 0 86 87 81 -.075 -.098425 -.0508 18 86 1060 0 88 83 8
9 84 ?1 29 87 1140 0 89 90 84 .075 -.098425 -.0508 18 89 1062 0 91 86 92 87 ?1 2
9 90 1141 0 92 0 87 .075 -.098425 -.04445 18 92 1063 0 93 89 0 90 ?1 17 93 0 94
 95 96 92 82 97 0 98 -15 255 94 89 0 96 99 0 17 95 0 94 100 93 89 98 101 0 0 +17
 96 0 94 93 33 80 102 103 0 0 +17 82 0 104 79 105 80 93 97 0 106 +16 97 1024 0 ?
82 107 108 109 0 0 1 17 98 0 110 111 112 92 95 101 0 105 -15 110 1103 0 111 113
 0 17 111 0 110 114 98 83 105 115 0 116 -17 112 0 110 98 114 89 117 118 0 95 -16
 101 1033 0 ?95 118 115 119 0 0 1 17 105 0 104 82 85 92 111 115 0 0 +15 104 1072
 0 79 120 0 17 85 0 104 105 79 83 121 107 0 111 -16 115 1021 0 ?105 101 122 123
 0 0 1 16 122 1335 0 ?124 115 125 126 0 0 1 30 255 123 1129 0 115 127 119 0 +0 -
.098425 -.04445 1 0 0 31 127 1592 0 128 129 123 0 +.06 -.006825 -.0508 0 0 -1 -1
 0 0 .002 30 119 1128 0 101 123 130 0 +.075 -.098425 0 0 0 -1 30 130 1127 0 118
 119 131 0 +0 -.098425 -.0508 -1 0 0 16 118 1029 0 ?117 108 101 130 0 0 1 30 131
 1126 0 108 130 132 0 +-.075 -.098425 327821759239711e-30 4370956789862825e-30 0
 1 16 108 1025 0 ?116 97 118 131 0 0 1 30 132 1121 0 107 131 109 0 +-.075 -.0984
25 -.04445 0 1 0 16 107 1028 0 ?121 133 97 132 0 0 1 30 109 1118 0 97 132 134 0
 +.075 -.098425 -.04445 0 1 0 31 134 949 0 135 109 136 0 +-.015 .001675 -.0058 0
 1 0 0 0 1 .0125 16 135 919 0 ?137 138 133 134 0 0 1 31 136 948 0 133 134 139 0
 +-.015 .003175 -.0058 0 1 0 0 0 1 .0125 16 133 915 0 ?140 135 107 136 0 0 1 31
 139 859 0 141 136 142 0 +-.03578460969082655 .003175 -.0178 0 1 0 0 0 1 .0015 1
6 141 768 0 ?143 144 145 139 0 0 1 31 142 858 0 145 139 146 0 +-.035784609690826
55 -.003175 -.0178 0 1 0 0 0 1 .0015 16 145 765 0 ?147 141 148 142 0 0 1 31 146
 857 0 148 142 149 0 +-.002009618943233415 .003175 -.0133 0 1 0 0 0 1 .0015 16 1
48 786 0 ?150 145 151 146 0 0 1 31 149 856 0 151 146 152 0 +-.002009618943233415
 -.003175 -.0133 0 1 0 0 0 1 .0015 16 151 783 0 ?153 148 154 149 0 0 1 31 152 85
5 0 155 149 156 0 +-.015 .003175 .0182 0 1 0 0 0 1 .0015 16 155 732 0 ?157 158 1
59 152 0 0 1 31 156 854 0 159 152 160 0 +-.015 -.003175 .0182 0 1 0 0 0 1 .0015
 16 159 729 0 ?161 155 162 156 0 0 1 31 160 853 0 162 156 163 0 +-.0279903810567
666 .003175 -.0133 0 1 0 0 0 1 .0015 16 162 750 0 ?164 159 144 160 0 0 1 31 163
 852 0 144 160 165 0 +-.0279903810567666 -.003175 -.0133 0 1 0 0 0 1 .0015 16 14
4 747 0 ?166 162 141 163 0 0 1 31 165 851 0 154 163 167 0 +.00578460969082653 .0
03175 -.0178 0 1 0 0 0 1 .0015 16 154 714 0 ?168 151 169 165 0 0 1 31 167 850 0
 169 165 170 0 +.00578460969082653 -.003175 -.0178 0 1 0 0 0 1 .0015 16 169 711
 0 ?171 154 138 167 0 0 1 31 170 849 0 172 167 173 0 +-.015 -.003175 .0092 0 1 0
 0 0 1 .0015 16 172 801 0 ?174 175 158 170 0 0 1 31 173 848 0 158 170 176 0 +-.0
15 .003175 .0092 0 1 0 0 0 1 .0015 16 158 804 0 ?177 172 155 173 0 0 1 31 176 42
8 0 178 173 179 0 +.067 -.003175 -.0408 0 1 0 0 0 1 .002 16 178 253 0 ?180 103 1
81 176 0 0 1 31 179 427 0 181 176 182 0 +.067 .003175 -.0408 0 1 0 0 0 1 .002 16
 181 256 0 ?183 178 184 179 0 0 1 31 182 426 0 175 179 185 0 +.0699 .003175 -.00
58 0 1 0 0 0 1 .00635 16 175 492 0 ?38 186 172 182 0 0 1 31 185 424 0 187 182 18
8 0 +-.06725 .003175 -.0058 0 1 0 0 0 1 .0015 16 187 351 0 ?189 190 191 185 0 0
 1 31 188 423 0 191 185 192 0 +-.06725 -.003175 -.0058 0 1 0 0 0 1 .0015 16 191
 348 0 ?193 187 194 188 0 0 1 31 192 422 0 194 188 195 0 +.0319 .003175 -.0058 0
 1 0 0 0 1 .00635 16 194 369 0 ?196 191 186 192 0 0 1 31 195 421 0 186 192 197 0
 +.0319 -.003175 -.0058 0 1 0 0 0 1 .00635 16 186 366 0 ?198 194 175 195 0 0 1 3
1 197 420 0 184 195 199 0 +.067 .003175 .0292 0 1 0 0 0 -1 .002 16 184 315 0 ?20
0 181 201 197 0 0 1 31 199 419 0 201 197 202 0 +.067 -.003175 .0292 0 1 0 0 0 -1
 .002 16 201 312 0 ?203 184 190 199 0 0 1 31 202 417 0 190 199 204 0 +-.015 -.00
3175 -.0058 0 1 0 0 0 1 .011 16 190 330 0 ?205 201 187 202 0 0 1 30 204 7 0 206
 202 207 0 +.075 .003175 -.0508 -2731847993664265e-31 0 -1 16 206 5 0 ?208 209 2
10 204 210 210 1 30 207 11 0 209 204 211 0 +-.075 .003175 -.0508 -1 0 0 16 209 9
 0 ?75 212 206 207 0 0 1 30 211 15 0 212 207 213 0 +-.075 .003175 -.0508 2731847
993664265e-31 0 1 16 212 13 0 ?72 214 209 211 0 0 1 30 213 19 0 214 211 215 0 +-
.075 .003175 .0508 1 0 0 16 214 17 0 ?69 216 212 213 0 0 1 30 215 74 0 217 213 2
18 0 +.075 -.003175 -.0508 -2731847993664265e-31 0 -1 16 217 62 0 ?219 220 103 2
15 103 103 1 30 218 72 0 220 215 221 0 +-.075 -.003175 -.0508 2731847993664265e-
31 0 1 16 220 985 0 ?66 222 217 218 0 0 1 30 221 71 0 222 218 223 0 +-.075 -.003
175 .0508 1 0 0 16 222 50 0 ?62 210 220 221 0 0 1 30 223 95 0 216 221 224 0 +.07
5 .003175 .0508 0 -1 0 16 216 79 0 ?225 226 214 223 0 0 1 30 224 96 0 226 223 22
7 0 +-.075 .003175 .0508 0 -1 0 16 226 80 0 ?228 229 216 224 0 0 1 30 227 97 0 2
29 224 230 0 +-.075 .003175 -.0508 0 -1 0 16 229 81 0 ?88 231 226 227 0 0 1 30 2
30 98 0 231 227 232 0 +.075 .003175 -.0508 0 -1 0 16 231 82 0 ?91 233 229 230 0
 0 1 31 232 184 0 233 230 234 0 +.0699 -.003175 -.0058 0 1 0 0 0 1 .00635 16 233
 513 0 ?41 235 231 232 0 0 1 30 234 487 0 235 232 236 0 +.075 .003175 .006838334
5421776 0 1 0 16 235 485 0 ?237 238 233 234 0 0 1 31 236 502 0 238 234 239 0 +.0
6865 .003175 -.01843833454217765 0 1 0 0 0 1 .00635 16 238 500 0 ?46 240 235 236
 0 0 1 31 239 508 0 240 236 241 0 +.06865 .003175 .0068383345421776 0 1 0 0 0 1
 .00635 16 240 506 0 ?49 242 238 239 0 0 1 30 241 520 0 242 239 243 0 +.069275 -
.003175 -.01211916727108882 0 1 0 16 242 518 0 ?52 40 240 241 0 0 1 30 243 526 0
 40 241 244 0 -.069275 -.003175 .000519167271088792 0 1 0 16 40 524 0 ?34 32 242
 243 0 0 1 31 244 535 0 32 243 245 0 -.06865 -.003175 -.01843833454217765 0 1 0
 0 0 1 .00635 16 32 533 0 ?31 246 40 244 0 0 1 31 245 541 0 246 244 247 0 -.0686
5 -.003175 .0068383345421776 0 1 0 0 0 1 .00635 16 246 539 0 ?58 248 32 245 0 0
 1 30 247 547 0 248 245 249 0 -.075 .003175 -.01843833454217765 0 1 0 16 248 545
 0 ?33 250 246 247 0 0 1 31 249 903 0 138 247 251 0 --.015 .001675 -.0058 0 1 0
 0 0 1 .011 16 138 922 0 ?252 169 135 249 0 0 1 30 251 992 0 250 249 253 0 +0 -.
003175 -.04445 1 0 0 16 250 990 0 ?106 254 248 251 0 0 1 31 253 1199 0 255 251 2
56 0 +.06 -.006825 -.04445 0 0 1 1 0 0 .002 16 255 1527 0 ?257 258 128 253 0 0 1
 31 256 1206 0 258 253 259 0 +-.06 -.037625 -.04445 0 0 1 1 0 0 .002 16 258 1503
 0 ?260 261 255 256 0 0 1 31 259 1213 0 261 256 262 0 +-693889390390723e-32 -.03
7625 -.04445 0 0 1 1 0 0 .002 16 261 1479 0 ?263 264 258 259 0 0 1 31 262 1220 0
 264 259 265 0 +.06 -.037625 -.04445 0 0 1 1 0 0 .002 16 264 1455 0 ?266 267 261
 262 0 0 1 31 265 1227 0 267 262 268 0 +.06 -.088425 -.04445 0 0 1 1 0 0 .002 16
 267 1431 0 ?269 270 264 265 0 0 1 31 268 1234 0 270 265 271 0 +0 -.088425 -.044
45 0 0 1 1 0 0 .002 16 270 1407 0 ?272 273 267 268 0 0 1 31 271 1241 0 273 268 2
74 0 +-.06 -.088425 -.04445 0 0 1 1 0 0 .002 16 273 1383 0 ?275 125 270 271 0 0
 1 31 274 1248 0 125 271 126 0 +-.06 -.006825 -.04445 0 0 1 1 0 0 .002 16 125 13
59 0 ?276 122 273 274 0 0 1 31 126 1255 0 122 274 277 0 +0 -.006825 -.04445 0 0
 1 1 0 0 .002 31 277 1690 0 278 126 279 0 +-.0335 -.003175 -.0058 0 1 0 0 0 1 .0
025 16 278 1740 0 ?280 281 282 277 0 0 1 31 279 1697 0 281 277 283 0 +.0035 -.00
3175 -.0058 0 1 0 0 0 1 .0025 16 281 1716 0 ?284 285 278 279 0 0 1 31 283 1798 0
 254 279 286 0 +-.0335 .000674999999999981 -.0058 0 1 0 0 0 1 .0025 16 254 1795
 0 ?287 288 250 283 0 0 1 31 286 1805 0 288 283 21 0 -.0035 .003175 -.0058 0 1 0
 0 0 1 .00500000000000012 16 288 1802 0 ?289 25 254 286 0 0 1 31 21 1812 0 25 28
6 7 0 --.0335 .003175 -.0058 0 1 0 0 0 1 .005 16 25 1809 0 ?290 10 288 21 0 0 1
 17 290 0 291 290 290 0 292 25 0 0 +15 291 1810 0 290 293 294 17 292 0 295 292 2
92 0 290 25 0 0 -15 295 1831 0 292 296 297 14 255 296 1830 298 ?19 299 295 5 20
 +0 0 19 299 23 15 297 1832 0 300 296 0 17 300 0 297 300 300 0 287 254 0 0 -17 2
87 0 301 287 287 0 300 254 0 0 +15 301 1796 0 287 302 303 14 302 1747 304 ?299 3
05 301 5 306 -0 0 299 305 23 15 303 1751 0 307 302 0 17 307 0 303 307 307 0 280
 278 0 0 -17 280 0 308 280 280 0 307 278 0 0 +15 308 1688 0 280 309 310 14 309 4
8 311 ?312 293 313 5 314 -0 0 312 293 23 15 310 662 0 171 309 315 17 171 0 310 1
71 171 0 316 169 0 0 +15 315 655 0 161 309 317 17 161 0 315 161 161 0 318 159 0
 0 +15 317 648 0 166 309 319 17 166 0 317 166 166 0 320 144 0 0 +15 319 641 0 14
7 309 321 17 147 0 319 147 147 0 322 145 0 0 +15 321 634 0 153 309 323 17 153 0
 321 153 153 0 324 151 0 0 +15 323 627 0 174 309 325 17 174 0 323 174 174 0 326
 172 0 0 +15 325 189 0 180 309 327 17 180 0 325 180 180 0 328 178 0 0 +15 327 17
6 0 203 309 329 17 203 0 327 203 203 0 330 201 0 0 +15 329 169 0 205 309 331 17
 205 0 329 205 205 0 332 190 0 0 +15 331 162 0 193 309 333 17 193 0 331 193 193
 0 334 191 0 0 +15 333 155 0 198 309 335 17 198 0 333 198 198 0 336 186 0 0 +15
 335 49 0 337 309 0 17 337 0 335 106 338 67 66 220 0 0 -17 106 0 335 102 337 80
 79 250 0 96 +17 338 0 335 337 339 64 62 222 0 0 -17 66 0 340 341 121 64 337 220
 0 228 +15 340 85 0 341 342 0 17 341 0 340 343 66 70 228 226 0 344 -17 121 0 340
 66 116 67 85 107 0 337 +17 228 0 345 62 344 64 341 226 0 338 +15 345 83 0 62 34
6 0 17 62 0 345 347 228 60 338 222 0 225 +17 344 0 345 228 347 70 69 214 0 0 -17
 347 0 345 344 62 59 225 216 0 348 -17 69 0 349 208 72 59 344 214 0 347 +15 349
 1003 0 77 293 350 17 208 0 349 49 69 53 348 206 0 0 +17 72 0 349 69 75 70 343 2
12 0 341 +17 75 0 349 72 77 73 351 209 0 352 +17 343 0 340 88 341 73 72 212 0 0
 -17 88 0 340 116 343 86 352 229 0 117 +17 116 0 340 121 88 83 114 108 0 0 +17 3
52 0 353 351 117 73 88 229 0 343 -17 117 0 353 352 91 86 112 118 0 114 +15 353 8
7 0 91 354 0 17 91 0 353 117 351 89 100 231 0 112 +17 114 0 110 112 111 86 116 1
08 0 0 -17 351 0 353 91 352 63 75 209 0 100 -17 100 0 94 355 95 63 91 231 0 0 -1
7 355 0 94 33 100 42 77 210 0 29 -17 33 0 94 96 355 11 29 248 0 102 +17 77 0 349
 75 46 63 355 210 0 351 +16 210 498 0 ?77 206 222 204 206 206 1 17 29 0 28 356 2
6 42 33 248 0 0 -15 28 582 0 356 357 0 17 356 0 28 30 29 50 46 238 0 0 -17 30 0
 28 26 356 35 52 242 0 0 -17 46 0 349 77 358 42 356 238 0 355 +17 358 0 349 46 4
9 50 38 175 0 356 -17 49 0 349 358 208 47 55 240 0 38 +17 38 0 36 34 52 47 358 1
75 0 39 +15 36 300 0 38 359 0 17 52 0 36 38 37 50 30 242 0 358 +17 39 0 360 55 3
61 47 34 40 0 0 -15 360 561 0 361 362 0 17 55 0 360 363 39 53 49 240 0 237 -17 3
61 0 360 39 363 27 58 246 0 0 -17 363 0 360 361 55 56 237 235 0 0 -17 58 0 335 3
39 41 56 361 246 0 219 +17 339 0 335 338 58 60 219 217 0 0 -17 41 0 335 58 31 27
 37 233 0 361 +17 219 0 364 237 225 56 339 217 0 363 +15 364 243 0 219 365 0 17
 237 0 364 348 219 53 363 235 0 208 +17 225 0 364 219 348 60 347 216 0 339 +17 3
48 0 364 225 237 59 208 206 0 0 -14 365 244 366 ?99 16 364 5 367 -99 99 99 16 23
 81 1 366 2200 368 365 369 0 311 370 371 14 99 90 370 ?354 365 94 5 367 -365 365
 354 365 23 14 16 904 372 ?365 0 373 5 374 -0 0 365 0 23 50 255 367 94 0 99 375
 376 0 +.075 .003175 -.0508 -1 0 2731847993664265e-31 2731847993664265e-31 0 1 1
3 23 34 0 0 0 0 0 0 9 16 50 375 93 0 354 377 367 0 +-.075 .003175 -.0508 0 0 1 1
 0 0 51 255 376 572 0 362 367 378 0 +.06865 -.003175 .0068383345421776 0 1 0 .00
635 0 0 1 14 362 560 379 ?357 380 360 5 376 +0 0 357 380 23 51 378 593 0 357 376
 20 0 +.06865 -.003175 -.01843833454217765 0 1 0 .00635 0 0 1 14 357 581 381 ?38
2 362 28 5 378 +0 0 382 362 23 52 20 1837 383 296 378 6 0 --.0335 .0006749999999
99981 -.0058 0 1 0 .0025 .707106781186551 .707106781186545 0 0 1 81 2 383 1838 3
84 20 0 0 0 18 385 386 80 7 CCCCCDI12 legal_owners0 16 1 lCZ2 384 387 388 8044 0
 0 0 0 3 5 0 0 0 FFFFTFFFTTFFFFFF3 2 81 2 18 1852 384 6 0 0 383 0 389 390 84 255
 6 385 BAAAAB83 255 3 386 0 .0025 .00250000000000004 84 6 389 BAAAAB83 3 390 0 .
0025000000000001 .002500000000000115 79 255 17 388 SDL/TYSA_BLEND_ID81 1 381 220
8 368 357 391 0 379 392 393 14 382 807 392 ?394 357 395 5 396 -0 0 394 357 23 81
 1 392 2210 368 382 397 0 381 398 399 14 394 789 398 ?400 382 401 5 402 -0 0 400
 382 23 15 395 810 0 326 382 403 51 396 830 0 382 404 405 0 +-.015 -.003175 .009
2 0 1 0 .0015 0 0 1 51 404 835 0 406 407 396 0 +.00578460969082653 -.003175 -.01
78 0 1 0 .0015 0 0 1 51 405 410 0 380 396 408 0 +.067 -.003175 -.0408 0 1 0 .002
 0 0 1 14 380 259 409 ?362 359 410 5 405 -0 0 362 359 23 51 408 409 0 359 405 41
1 0 +.0699 -.003175 -.0058 0 1 0 .00635 0 0 1 14 359 297 412 ?380 413 36 5 408 -
0 0 380 413 23 51 411 406 0 414 408 415 0 +-.06725 -.003175 -.0058 0 1 0 .0015 0
 0 1 14 414 354 416 ?413 312 417 5 411 -0 0 413 312 23 51 415 403 0 312 411 418
 0 +.0319 -.003175 -.0058 0 1 0 .00635 0 0 1 14 312 372 419 ?414 309 420 5 415 -
0 0 414 309 23 51 418 400 0 413 415 374 0 +.067 -.003175 .0292 0 1 0 .002 0 0 1
 14 413 318 421 ?359 414 422 5 418 -0 0 359 414 23 51 374 397 0 16 418 423 0 +-.
015 -.003175 -.0058 0 1 0 .011 0 0 1 50 423 3 0 293 374 314 0 +0 .003175 0 0 1 0
 0 0 1 14 293 1 424 ?309 346 291 5 423 +0 0 309 346 23 50 314 70 0 309 423 425 0
 +0 -.003175 0 0 1 0 0 0 1 50 425 91 0 346 314 377 0 +-.075 .003175 .0508 0 0 -1
 -1 0 0 14 346 84 426 ?293 342 345 5 425 -0 0 293 342 23 50 377 92 0 342 425 375
 0 +-.075 .003175 -.0508 1 0 -2731847993664265e-31 -2731847993664265e-31 0 -1 14
 342 86 427 ?346 354 340 5 377 -0 0 346 354 23 81 1 427 2228 368 342 428 0 426 4
29 430 14 354 88 429 ?342 99 431 5 375 -0 0 342 99 23 81 1 429 2230 368 354 432
 0 427 433 434 15 431 1901 0 435 354 436 17 435 0 431 435 435 0 437 282 0 0 +15
 436 1893 0 438 354 439 17 438 0 436 438 438 0 440 441 0 0 +15 439 1324 0 442 35
4 443 17 442 0 439 442 442 0 444 445 0 0 -15 443 1316 0 446 354 447 17 446 0 443
 446 446 0 448 449 0 0 -15 447 1308 0 450 354 451 17 450 0 447 450 450 0 452 453
 0 0 -15 451 1300 0 454 354 455 17 454 0 451 454 454 0 456 457 0 0 -15 455 1292
 0 458 354 459 17 458 0 455 458 458 0 460 461 0 0 -15 459 1284 0 462 354 463 17
 462 0 459 462 462 0 464 465 0 0 -15 463 1276 0 466 354 467 17 466 0 463 466 466
 0 468 469 0 0 -15 467 1268 0 470 354 471 17 470 0 467 470 470 0 472 285 0 0 -15
 471 1260 0 473 354 353 17 473 0 471 473 473 0 474 128 0 0 -17 474 0 475 474 474
 0 473 128 0 0 +16 128 1528 0 ?474 255 445 127 0 0 1 16 445 1336 0 ?444 128 449
 476 0 0 1 17 444 0 477 444 444 0 442 445 0 0 +16 449 1360 0 ?448 445 453 478 0
 0 1 31 476 1601 0 445 479 478 0 +0 -.006825 -.0508 0 0 -1 -1 0 0 .002 31 479 16
03 0 285 480 476 0 +-.06 -.037625 -.0508 0 0 -1 1 0 0 .002 31 478 1599 0 449 476
 481 0 +-.06 -.006825 -.0508 0 0 -1 1 0 0 .002 31 481 1597 0 453 478 129 0 +-.06
 -.088425 -.0508 0 0 -1 -1 0 0 .002 16 453 1384 0 ?452 449 457 481 0 0 1 31 129
 1595 0 457 481 127 0 +0 -.088425 -.0508 0 0 -1 1 0 0 .002 16 457 1408 0 ?456 45
3 461 129 0 0 1 17 456 0 482 456 456 0 454 457 0 0 +16 461 1432 0 ?460 457 465 4
83 0 0 1 17 460 0 484 460 460 0 458 461 0 0 +16 465 1456 0 ?464 461 469 485 0 0
 1 31 483 1609 0 461 486 485 0 +.06 -.088425 -.0508 0 0 -1 1 0 0 .002 31 486 195
4 0 441 487 483 0 +-.045 -.073425 -.0508 0 0 1 -1 0 0 .0015 31 485 1607 0 465 48
3 480 0 +.06 -.037625 -.0508 0 0 -1 -1 0 0 .002 31 480 1605 0 469 485 479 0 +-69
3889390390723e-32 -.037625 -.0508 0 0 -1 -1 0 0 .002 16 469 1480 0 ?468 465 285
 480 0 0 1 17 468 0 488 468 468 0 466 469 0 0 +16 285 1504 0 ?472 469 281 479 0
 0 1 17 472 0 489 472 472 0 470 285 0 0 +15 489 1516 0 472 490 0 14 490 1512 433
 ?491 492 493 5 494 -0 0 491 492 23 81 1 433 2232 368 490 495 0 429 496 497 14 4
91 1488 496 ?498 490 499 5 500 -0 0 498 490 23 14 492 1536 501 ?490 113 502 5 50
3 -0 0 490 113 23 15 493 1515 0 260 490 489 51 494 1582 0 490 500 504 0 +-.06 -.
037625 .0508 0 0 -1 .002 -1 0 0 51 500 1585 0 491 505 494 0 +-693889390390723e-3
2 -.037625 .0508 0 0 -1 .002 -1 0 0 51 504 1579 0 305 494 506 0 +0 -.006825 .050
8 0 0 -1 .002 -1 0 0 14 305 1344 507 ?302 508 509 5 504 -0 0 302 508 23 51 506 1
576 0 508 504 510 0 +-.06 -.006825 .0508 0 0 -1 .002 -1 0 0 14 508 1368 511 ?305
 512 513 5 506 -0 0 305 512 23 51 510 1573 0 512 506 514 0 +-.06 -.088425 .0508
 0 0 -1 .002 -1 0 0 14 512 1392 515 ?508 516 517 5 510 -0 0 508 516 23 51 514 15
70 0 516 510 503 0 +0 -.088425 .0508 0 0 -1 .002 -1 0 0 14 516 1416 518 ?512 519
 520 5 514 -0 0 512 519 23 51 503 1565 0 492 514 521 0 +.06 -.006825 .0508 0 0 -
1 .002 -1 0 0 50 521 1114 0 113 503 522 0 +0 -.098425 0 0 1 0 0 0 1 14 113 1101
 523 ?492 120 110 5 521 -0 0 492 120 23 50 522 1109 0 120 521 524 0 +0 -.098425
 -.04445 0 0 1 1 0 0 14 120 1069 525 ?113 526 527 5 522 +0 0 113 526 23 50 524 9
46 0 528 522 529 0 +-.015 .001675 -.0058 0 1 0 0 0 1 14 528 923 530 ?526 406 531
 5 524 +0 0 526 406 23 51 529 944 0 526 524 532 0 +-.015 .001675 -.0058 0 1 0 .0
125 0 0 1 14 526 931 533 ?120 528 534 5 529 -0 0 120 528 23 51 532 847 0 400 529
 402 0 +-.03578460969082655 -.003175 -.0178 0 1 0 .0015 0 0 1 14 400 771 535 ?53
6 394 537 5 532 -0 0 536 394 23 51 402 844 0 394 532 538 0 +-.002009618943233415
 -.003175 -.0133 0 1 0 .0015 0 0 1 51 538 841 0 539 402 407 0 +-.015 -.003175 .0
182 0 1 0 .0015 0 0 1 14 539 735 540 ?406 536 541 5 538 -0 0 406 536 23 51 407 8
38 0 536 538 404 0 +-.0279903810567666 -.003175 -.0133 0 1 0 .0015 0 0 1 14 536
 753 542 ?539 400 543 5 407 -0 0 539 400 23 81 1 542 2258 368 536 544 0 540 545
 546 15 543 756 0 320 536 547 17 320 0 543 320 320 0 166 144 0 0 -15 547 757 0 1
64 536 0 17 164 0 547 164 164 0 548 162 0 0 +17 548 0 549 548 548 0 164 162 0 0
 -15 549 691 0 548 293 550 15 550 684 0 551 293 552 17 551 0 550 551 551 0 143 1
41 0 0 -15 552 677 0 553 293 554 17 553 0 552 553 553 0 150 148 0 0 -15 554 670
 0 555 293 556 17 555 0 554 555 555 0 177 158 0 0 -15 556 237 0 557 293 558 17 5
57 0 556 557 557 0 183 181 0 0 -15 558 224 0 559 293 560 17 559 0 558 559 559 0
 200 184 0 0 -15 560 210 0 561 293 562 17 561 0 560 561 561 0 189 187 0 0 -15 56
2 203 0 563 293 0 17 563 0 562 563 563 0 196 194 0 0 -17 196 0 564 196 196 0 563
 194 0 0 +15 564 376 0 196 312 0 17 189 0 565 189 189 0 561 187 0 0 +15 565 358
 0 189 414 0 17 200 0 566 200 200 0 559 184 0 0 +15 566 322 0 200 413 0 17 183 0
 567 183 183 0 557 181 0 0 +15 567 263 0 183 380 0 17 177 0 403 177 177 0 555 15
8 0 0 +15 403 811 0 177 382 0 17 150 0 568 150 150 0 553 148 0 0 +15 568 793 0 1
50 394 0 17 143 0 569 143 143 0 551 141 0 0 +15 569 775 0 143 400 0 80 1 368 570
 571 9000 1 1 1 1 1 1 1 1 0 FFFFTFTFFFFFFFFF1 81 3 544 2257 572 536 573 542 574
 575 576 0 0 81 1 540 2256 368 539 574 0 535 542 577 81 1 545 2260 368 406 575 0
 542 578 579 82 255 1 546 -154795754 14 406 717 545 ?528 539 580 5 404 -0 0 528
 539 23 81 3 575 2259 572 406 581 545 544 582 583 0 0 81 1 578 2262 368 498 582
 0 545 584 585 82 1 579 -142999274 14 498 1464 578 ?519 491 586 5 505 -0 0 519 4
91 23 81 3 582 2261 572 498 587 578 575 588 589 0 0 81 1 584 2264 368 519 588 0
 578 590 591 82 1 585 73335068 14 519 1440 584 ?516 498 592 5 593 -0 0 516 498 2
3 81 3 588 2263 572 519 594 584 582 595 596 0 0 81 1 590 2266 368 299 595 0 584
 597 598 82 1 591 69402908 14 299 1723 590 ?296 302 599 5 600 -0 0 296 302 23 81
 3 595 2265 572 299 601 590 588 602 603 0 0 81 1 597 2268 368 19 602 0 590 604 6
05 82 1 598 175571231 14 19 1844 597 ?606 296 607 5 6 +0 0 606 296 23 81 3 602 2
267 572 19 608 597 595 609 610 0 0 81 1 604 2270 368 606 609 0 597 611 612 82 1
 605 183370015 14 606 1933 604 ?613 19 614 5 615 -0 0 613 19 23 81 3 609 2269 57
2 606 616 604 602 617 618 0 0 81 1 611 2272 368 613 617 0 604 0 619 82 1 612 210
108705 14 613 1915 611 ?0 606 620 5 621 -0 0 0 606 23 81 3 617 2271 572 613 622
 611 609 0 623 0 0 82 1 619 206111009 80 3 572 624 625 9000 0 0 0 0 3 5 0 0 0 FF
FFTFFFFFFFFFFF1 1 1 81 1 622 2067 626 613 0 617 616 0 627 82 6 623 0 -1262767050
 31199376 0 0 0 80 1 626 0 628 8001 0 0 0 0 3 5 0 0 0 FFFFTFTFFFFFFFFF2 81 1 616
 2066 626 606 0 609 608 622 629 83 3 627 .898039215686275 .92156862745098 .92941
1764705882 81 1 608 2065 626 19 0 602 630 616 631 83 3 629 .898039215686275 .921
56862745098 .929411764705882 81 1 630 2064 626 296 0 632 601 608 633 83 3 631 .8
98039215686275 .92156862745098 .929411764705882 81 3 632 2193 572 296 630 298 0
 634 635 0 0 81 1 601 2063 626 299 0 595 636 630 637 83 3 633 .898039215686275 .
92156862745098 .929411764705882 81 1 636 2062 626 302 0 634 638 601 639 83 3 637
 .898039215686275 .92156862745098 .929411764705882 81 3 634 2195 572 302 636 304
 632 640 641 0 0 81 1 638 2061 626 305 0 642 643 636 644 83 3 639 .8980392156862
75 .92156862745098 .929411764705882 81 3 642 2237 572 305 638 507 645 646 647 0
 0 81 1 643 2060 626 508 0 646 648 638 649 83 3 644 .898039215686275 .9215686274
5098 .929411764705882 81 3 646 2239 572 508 643 511 642 650 651 0 0 81 1 648 205
9 626 512 0 650 652 643 653 83 3 649 .898039215686275 .92156862745098 .929411764
705882 81 3 650 2241 572 512 648 515 646 654 655 0 0 81 1 652 2058 626 516 0 654
 594 648 656 83 3 653 .898039215686275 .92156862745098 .929411764705882 81 3 654
 2243 572 516 652 518 650 657 658 0 0 81 1 594 2057 626 519 0 588 587 652 659 83
 3 656 .898039215686275 .92156862745098 .929411764705882 81 1 587 2056 626 498 0
 582 660 594 661 83 3 659 .898039215686275 .92156862745098 .929411764705882 81 1
 660 2055 626 491 0 662 663 587 664 83 3 661 .898039215686275 .92156862745098 .9
29411764705882 81 3 662 2233 572 491 660 496 495 645 665 0 0 81 1 663 2054 626 4
90 0 495 666 660 667 83 3 664 .898039215686275 .92156862745098 .929411764705882
 81 3 495 2231 572 490 663 433 432 662 668 0 0 81 1 666 2053 626 492 0 645 669 6
63 670 83 3 667 .898039215686275 .92156862745098 .929411764705882 81 3 645 2235
 572 492 666 501 662 642 671 0 0 81 1 669 2052 626 113 0 657 672 666 673 83 3 67
0 .898039215686275 .92156862745098 .929411764705882 81 3 657 2245 572 113 669 52
3 654 674 675 0 0 81 1 672 2051 626 120 0 674 676 669 677 83 3 673 .898039215686
275 .92156862745098 .929411764705882 81 3 674 2247 572 120 672 525 657 678 679 0
 0 81 1 676 2050 626 526 0 680 681 672 682 83 3 677 .898039215686275 .9215686274
5098 .929411764705882 81 3 680 2251 572 526 676 533 678 683 684 0 0 81 1 681 204
9 626 528 0 678 581 676 685 83 3 682 .898039215686275 .92156862745098 .929411764
705882 81 3 678 2249 572 528 681 530 674 680 686 0 0 81 1 581 2048 626 406 0 575
 687 681 688 83 3 685 .898039215686275 .92156862745098 .929411764705882 81 1 687
 2047 626 539 0 574 573 581 689 83 3 688 .898039215686275 .92156862745098 .92941
1764705882 81 3 574 2255 572 539 687 540 683 544 690 0 0 81 1 573 2046 626 536 0
 544 691 687 692 83 3 689 .898039215686275 .92156862745098 .929411764705882 81 1
 691 2045 626 400 0 683 693 573 694 83 3 692 .898039215686275 .92156862745098 .9
29411764705882 81 3 683 2253 572 400 691 535 680 574 695 0 0 81 1 693 2044 626 3
94 0 696 697 691 698 83 3 694 .898039215686275 .92156862745098 .929411764705882
 81 3 696 2211 572 394 693 398 397 699 700 0 0 81 1 697 2043 626 382 0 397 701 6
93 702 83 3 698 .898039215686275 .92156862745098 .929411764705882 81 3 397 2209
 572 382 697 392 391 696 703 0 0 81 1 701 2042 626 357 0 391 704 697 705 83 3 70
2 .898039215686275 .92156862745098 .929411764705882 81 3 391 2207 572 357 701 38
1 706 397 707 0 0 81 1 704 2041 626 362 0 706 708 701 709 83 3 705 .898039215686
275 .92156862745098 .929411764705882 81 3 706 2205 572 362 704 379 710 391 711 0
 0 81 1 708 2040 626 380 0 699 712 704 713 83 3 709 .898039215686275 .9215686274
5098 .929411764705882 81 3 699 2213 572 380 708 409 696 714 715 0 0 81 1 712 203
9 626 359 0 714 716 708 717 83 3 713 .898039215686275 .92156862745098 .929411764
705882 81 3 714 2215 572 359 712 412 699 718 719 0 0 81 1 716 2038 626 413 0 720
 721 712 722 83 3 717 .898039215686275 .92156862745098 .929411764705882 81 3 720
 2221 572 413 716 421 723 724 725 0 0 81 1 721 2037 626 414 0 718 726 716 727 83
 3 722 .898039215686275 .92156862745098 .929411764705882 81 3 718 2217 572 414 7
21 416 714 723 728 0 0 81 1 726 2036 626 312 0 723 729 721 730 83 3 727 .8980392
15686275 .92156862745098 .929411764705882 81 3 723 2219 572 312 726 419 718 720
 731 0 0 81 1 729 2035 626 309 0 640 732 726 733 83 3 730 .898039215686275 .9215
6862745098 .929411764705882 81 3 640 2197 572 309 729 311 634 369 734 0 0 81 1 7
32 2034 626 293 0 724 735 729 736 83 3 733 .898039215686275 .92156862745098 .929
411764705882 81 3 724 2223 572 293 732 424 720 737 738 0 0 81 1 735 2033 626 346
 0 737 739 732 740 83 3 736 .898039215686275 .92156862745098 .929411764705882 81
 3 737 2225 572 346 735 426 724 428 741 0 0 81 1 739 2032 626 342 0 428 742 735
 743 83 3 740 .898039215686275 .92156862745098 .929411764705882 81 3 428 2227 57
2 342 739 427 737 432 744 0 0 81 1 742 2031 626 354 0 432 745 739 746 83 3 743 .
898039215686275 .92156862745098 .929411764705882 81 3 432 2229 572 354 742 429 4
28 495 747 0 0 81 1 745 2030 626 99 0 748 749 742 750 83 3 746 .898039215686275
 .92156862745098 .929411764705882 81 3 748 2201 572 99 745 370 369 710 751 0 0 8
1 1 749 2029 626 365 0 369 752 745 753 83 3 750 .898039215686275 .92156862745098
 .929411764705882 81 3 369 2199 572 365 749 366 640 748 754 0 0 81 1 752 2028 62
6 16 0 710 0 749 755 83 3 753 .898039215686275 .92156862745098 .929411764705882
 81 3 710 2203 572 16 752 372 748 706 756 0 0 83 3 755 .898039215686275 .9215686
2745098 .929411764705882 81 1 372 2204 368 16 710 0 370 379 757 82 6 756 0 -1263
136417 31199376 0 0 0 81 1 370 2202 368 99 748 0 366 372 758 81 1 379 2206 368 3
62 706 0 372 381 759 82 1 757 -78446312 82 1 759 -202505964 82 1 758 75301146 82
 6 754 0 -1263136417 31199376 0 0 0 82 6 751 0 -1263010869 31199376 0 0 0 82 6 7
47 0 -1262767050 31199376 0 0 0 82 6 744 0 -1263010869 31199376 0 0 0 81 1 426 2
226 368 346 737 0 424 427 760 82 6 741 0 2063775554 31198731 0 0 0 81 1 424 2224
 368 293 724 0 421 426 761 82 1 760 1617166459 81 1 421 2222 368 413 720 0 419 4
24 762 82 1 761 77332767 81 1 419 2220 368 312 723 0 416 421 763 82 1 762 -25965
3357 81 1 416 2218 368 414 718 0 412 419 764 82 1 763 -247856877 81 1 412 2216 3
68 359 714 0 409 416 765 82 1 764 -251789037 81 1 409 2214 368 380 699 0 398 412
 766 82 1 765 -214630124 81 1 398 2212 368 394 696 0 392 409 767 82 1 766 -26365
1053 82 1 767 -146931434 82 6 738 0 -1262767050 31199376 0 0 0 81 1 311 2198 368
 309 640 0 304 366 768 82 6 734 0 -1262787126 31199376 0 0 0 81 1 304 2196 368 3
02 634 0 298 311 769 82 1 768 70058270 81 1 298 2194 368 296 632 0 0 304 770 82
 1 769 175046943 82 1 770 181993759 82 6 731 0 -1263279400 31199376 0 0 0 82 6 7
28 0 -1263279400 31199376 0 0 0 82 6 725 0 -1263279400 31199376 0 0 0 82 6 719 0
 -1263136417 31199376 0 0 0 82 6 715 0 -1263279400 31199376 0 0 0 82 6 711 0 -12
63136417 31199376 0 0 0 82 6 707 0 -1263136417 31199376 0 0 0 82 6 703 0 -126313
6417 31199376 0 0 0 82 6 700 0 -1263136417 31199376 0 0 0 81 1 535 2254 368 400
 683 0 533 540 771 82 6 695 0 -1263136417 31199376 0 0 0 81 1 533 2252 368 526 6
80 0 530 535 772 82 1 771 -150863594 81 1 530 2250 368 528 678 0 525 533 773 82
 1 772 -82509544 81 1 525 2248 368 120 674 0 523 530 774 82 1 773 -77397736 81 1
 523 2246 368 113 657 0 518 525 775 82 1 774 13107489 81 1 518 2244 368 516 654
 0 515 523 776 82 1 775 -8716006 81 1 515 2242 368 512 650 0 511 518 777 82 1 77
6 65470748 81 1 511 2240 368 508 646 0 507 515 778 82 1 777 61538588 81 1 507 22
38 368 305 642 0 501 511 779 82 1 778 57606428 81 1 501 2236 368 492 645 0 496 5
07 780 82 1 779 53674268 81 1 496 2234 368 491 662 0 433 501 781 82 1 780 496765
72 82 1 781 77267228 82 6 690 0 -1263136417 31199376 0 0 0 82 6 686 0 -126313641
7 31199376 0 0 0 82 6 684 0 -1263136417 31199376 0 0 0 82 6 679 0 -1262767050 31
199376 0 0 0 82 6 675 0 -1263010869 31199376 0 0 0 82 6 671 0 -1263010869 311993
76 0 0 0 82 6 668 0 -1263010869 31199376 0 0 0 82 6 665 0 -1263010869 31199376 0
 0 0 82 6 658 0 -1263010869 31199376 0 0 0 82 6 655 0 -1263010869 31199376 0 0 0
 82 6 651 0 -1263010869 31199376 0 0 0 82 6 647 0 -1263010869 31199376 0 0 0 82
 6 641 0 -1262767050 31199376 0 0 0 82 6 635 0 -1262767050 31199376 0 0 0 79 15
 628 SDL/TYSA_COLOUR79 18 625 DOWNSTREAM_FACE_ID15 620 1918 0 437 613 782 51 621
 1951 0 613 0 615 0 +.015 -.073425 -.0508 0 0 1 .0015 1 0 0 51 615 1950 0 606 62
1 600 0 +-.045 -.073425 -.0508 0 0 1 .0015 1 0 0 51 600 1770 0 299 615 306 0 +.0
035 -.098425 -.0058 0 1 0 .0025 0 0 1 51 306 1769 0 302 600 593 0 +-.0335 -.0984
25 -.0058 0 1 0 .0025 0 0 1 51 593 1591 0 519 306 505 0 +.06 -.088425 .0508 0 0
 -1 .002 -1 0 0 51 505 1588 0 498 593 500 0 +.06 -.037625 .0508 0 0 -1 .002 -1 0
 0 17 437 0 620 437 437 0 435 282 0 0 -15 782 1919 0 783 613 0 17 783 0 782 783
 783 0 784 785 0 0 +17 784 0 527 784 784 0 783 785 0 0 -16 785 1912 0 ?783 282 7
86 787 0 0 1 16 282 1909 0 ?435 278 785 788 0 0 1 16 786 1930 0 ?789 785 441 487
 0 0 1 31 787 1956 0 785 788 487 0 +.015 -.073425 -.04445 0 0 1 1 0 0 .0015 31 7
88 1957 0 282 0 787 0 +.015 -.073425 -.0508 0 0 1 1 0 0 .0015 31 487 1955 0 786
 787 486 0 +-.045 -.073425 -.04445 0 0 1 -1 0 0 .0015 17 789 0 790 789 789 0 791
 786 0 0 +16 441 1927 0 ?438 786 0 486 0 0 1 15 790 1937 0 789 606 0 17 791 0 79
2 791 791 0 789 786 0 0 -15 792 1880 0 791 120 793 15 793 1254 0 794 120 795 17
 794 0 793 794 794 0 124 122 0 0 -15 795 1247 0 796 120 797 17 796 0 795 796 796
 0 276 125 0 0 -15 797 1240 0 798 120 799 17 798 0 797 798 798 0 275 273 0 0 -15
 799 1233 0 800 120 801 17 800 0 799 800 800 0 272 270 0 0 -15 801 1226 0 802 12
0 803 17 802 0 801 802 802 0 269 267 0 0 -15 803 1219 0 804 120 805 17 804 0 803
 804 804 0 266 264 0 0 -15 805 1212 0 806 120 807 17 806 0 805 806 806 0 263 261
 0 0 -15 807 1205 0 808 120 809 17 808 0 807 808 808 0 260 258 0 0 -15 809 1198
 0 810 120 104 17 810 0 809 810 810 0 257 255 0 0 -17 257 0 502 257 257 0 810 25
5 0 0 +15 502 1539 0 257 492 475 15 475 1540 0 474 492 0 17 260 0 493 260 260 0
 808 258 0 0 +17 263 0 499 263 263 0 806 261 0 0 +15 499 1491 0 263 491 488 15 4
88 1492 0 468 491 0 17 266 0 586 266 266 0 804 264 0 0 +15 586 1467 0 266 498 81
1 15 811 1468 0 464 498 0 17 464 0 811 464 464 0 462 465 0 0 +17 269 0 592 269 2
69 0 802 267 0 0 +15 592 1443 0 269 519 484 15 484 1444 0 460 519 0 17 272 0 520
 272 272 0 800 270 0 0 +15 520 1419 0 272 516 482 15 482 1420 0 456 516 0 17 275
 0 517 275 275 0 798 273 0 0 +15 517 1395 0 275 512 812 15 812 1396 0 452 512 0
 17 452 0 812 452 452 0 450 453 0 0 +17 276 0 513 276 276 0 796 125 0 0 +15 513
 1371 0 276 508 813 15 813 1372 0 448 508 0 17 448 0 813 448 448 0 446 449 0 0 +
17 124 0 509 124 124 0 794 122 0 0 +15 509 1347 0 124 305 477 15 477 1348 0 444
 305 0 15 527 1887 0 784 120 792 82 6 618 0 -1262767050 31199376 0 0 0 15 614 19
36 0 440 606 790 17 440 0 614 440 440 0 438 441 0 0 -82 6 610 0 -1262767050 3119
9376 0 0 0 15 607 1845 0 814 19 815 17 814 0 607 814 814 0 289 288 0 0 -15 815 1
846 0 816 19 0 17 816 0 815 816 816 0 24 10 0 0 -17 24 0 599 24 24 0 816 10 0 0
 +15 599 1817 0 24 299 817 15 817 1727 0 818 299 0 17 818 0 817 818 818 0 284 28
1 0 0 -17 284 0 313 284 284 0 818 281 0 0 +15 313 1695 0 284 309 308 17 289 0 29
4 289 289 0 814 288 0 0 +15 294 1803 0 289 293 349 82 6 603 0 -1262767050 311993
76 0 0 0 82 6 596 0 -1263010869 31199376 0 0 0 82 6 589 0 -1263010869 31199376 0
 0 0 82 6 583 0 -1263136417 31199376 0 0 0 15 580 720 0 316 406 819 17 316 0 580
 316 316 0 171 169 0 0 -15 819 721 0 168 406 0 17 168 0 819 168 168 0 820 154 0
 0 +17 820 0 821 820 820 0 168 154 0 0 -15 821 705 0 820 293 822 15 822 698 0 82
3 293 549 17 823 0 822 823 823 0 157 155 0 0 -17 157 0 824 157 157 0 823 155 0 0
 +15 824 739 0 157 539 0 82 1 577 -158727914 82 6 576 0 -1263136417 31199376 0 0
 0 79 14 571 SWEntUnchanged15 541 738 0 318 539 824 17 318 0 541 318 318 0 161 1
59 0 0 -15 537 774 0 322 400 569 17 322 0 537 322 322 0 147 145 0 0 -15 534 934
 0 825 526 826 17 825 0 534 825 825 0 137 135 0 0 -15 826 935 0 140 526 0 17 140
 0 826 140 140 0 827 133 0 0 +17 827 0 350 827 827 0 140 133 0 0 -15 350 909 0 8
27 293 821 17 137 0 531 137 137 0 825 135 0 0 +15 531 925 0 137 528 828 15 828 9
26 0 252 528 0 17 252 0 828 252 252 0 829 138 0 0 +17 829 0 830 829 829 0 252 13
8 0 0 -15 830 902 0 829 16 0 82 1 497 81199388 82 1 434 77791521 82 1 430 776604
42 15 422 321 0 330 413 566 17 330 0 422 330 330 0 203 201 0 0 -15 420 375 0 336
 312 564 17 336 0 420 336 336 0 198 186 0 0 -15 417 357 0 334 414 565 17 334 0 4
17 334 334 0 193 191 0 0 -15 410 262 0 328 380 567 17 328 0 410 328 328 0 180 17
8 0 0 -17 326 0 395 326 326 0 174 172 0 0 -15 401 792 0 324 394 568 17 324 0 401
 324 324 0 153 151 0 0 -82 1 399 -162725610 82 1 393 -200539884 15 373 339 0 332
 16 830 17 332 0 373 332 332 0 205 190 0 0 -82 1 371 -210042604 17 31 0 335 41 1
02 35 26 32 0 37 +17 37 0 36 52 34 35 41 233 0 30 -17 102 0 335 31 106 11 96 103
 0 0 -16 103 531 0 ?96 217 178 215 217 217 1 17 79 0 104 85 82 67 106 250 0 121
 -19 17 100 0 1 0 9 5 0 S0 74 4 CI16 index_map_offset0 0 1 dCCZ20 15 11 0 0 617
 611 831 832 833 18 834 835 13 622 2 0 0 0 0 0 0 0 0 0 81 2 831 1173 836 1 0 832
 0 0 0 837 81 2 832 1182 838 1 831 833 0 0 0 839 81 2 833 1183 840 1 832 834 0 0
 841 0 81 1 834 1973 842 1 833 835 0 0 843 81 2 835 1999 844 1 834 13 0 0 0 845
 81 2 13 2025 846 1 835 2 0 0 0 0 80 2 846 847 848 9000 0 0 0 0 3 5 0 0 0 FFTFFF
FFFFFFFFFF9 1 79 16 848 BODY_RECIPE_200180 2 844 849 850 9000 0 0 0 0 3 5 0 0 0
 FFTFFFFFFFFFFFFF9 1 82 1 845 1 79 24 850 BODY_IN_LIGHTWEIGHT_PERM80 1 842 851 8
52 9000 1 1 1 1 1 1 1 1 0 FFTFFFFFFFFFFFFF1 82 1 843 847 79 10 852 BODY_MATCH80
 2 840 853 854 9000 0 0 0 0 3 5 0 0 0 FFTFTTTFFTFFFFFF10 10 98 255 15 841 67 111
 114 116 97 114 45 69 120 116 114 117 105 114 55 79 23 854 SWIMPLICITBODYNAME_ID
_U80 2 838 855 856 9000 0 0 0 0 3 5 0 0 0 FFTFFFFFFFFFFFFF9 1 82 1 839 183 79 30
 856 LAST_BODY_MODIFYING_FEATURE_ID80 2 836 857 858 9000 0 0 0 0 3 5 0 0 0 FFTFF
FFFFFFFFTFF9 1 82 1 837 259 79 19 858 ENT_TIME_STAMP_200180 2 12 859 860 9000 0
 0 0 0 3 5 0 0 0 FFTFFFFFFFFFFFFF9 1 82 1 14 109 79 12 860 ATOM_ID_20011 0 
