**ABCDEFGHIJKLMNOPQRSTUVWXYZabcdefghijklmnopqrstuvwxyz**************************
**PARASOLID !"#$%&'()*+,-./:;<=>?@[\]^_`{|}~0123456789**************************
**PART1;
MC=AMD64;
MC_MODEL=Intel64 Family 6 Model 186 Stepping 2, GenuineIntel;
MC_ID=unknown;
OS=Windows_NT;
OS_RELEASE=unknown;
FRU=Parasolid Version 35.1, build 256,  4-22-2024;
APPL=SOLIDWORKS 2024-2024282;
SITE=;
USER=unknown;
FORMAT=text;
GUISE=transmit;
KEY=L_bracket_left_x14;
FILE=L_bracket_left_x14.x_t;
DATE=Wed Aug 20 12:07:33 2025;
**PART2;
SCH=SCH_3501256_35102;
USFLD_SIZE=0;
**PART3;
**END_OF_HEADER*****************************************************************
T51 : TRANSMIT FILE created by modeller version 350125623 SCH_3501256_35102_1300
6231 0 12 36 CCCI7 lattice222 0 CCCI4 mesh1006 0 I8 polyline1008 0 CCCCCCCDI5 ow
ner1040 0 CCCI16 boundary_lattice222 0 CCCI13 boundary_mesh1006 0 I17 boundary_p
olyline1008 0 CCCA16 index_map_offset0 0 1 dA9 index_map82 0 A17 node_id_index_m
ap82 0 A20 schema_embedding_map82 0 A5 child12 0 A14 lowest_node_id0 0 1 dA16 me
sh_offset_data206 0 Z1 2281 2 3 0 0 0 0 0 0 0 1e3 1e-8 0 4 0 1 0 1 1 5 0 6 7 8 0
 0 9 10 11 0 0 0 0 0 0 0 81 255 2 2 2201 12 1 13 0 0 0 0 14 70 11 CI9 list_type0
 0 1 uI10 notransmit0 0 1 lCCCDCCDI12 finger_index0 0 1 dI12 finger_block1012 0
 CZ3 0 4 T1 0 0 11 20 1 15 15 13 255 5 99 0 1 0 16 0 0 17 0 52 255 6 1870 18 19
 20 0 0 -.0035 -.000674999999999898 -.0058 0 -1 0 .0025 .70710678118655 .7071067
81186545 0 0 -1 31 255 7 1907 0 21 22 0 0 +-.045 .073425 -.04445 0 0 1 1 0 0 .00
15 29 255 8 1001 0 11 23 0 -.075 .003175 -.04445 19 9 CCCCCCI5 frame230 0 CA5 ow
ner12 0 Z9 33 0 1 17 0 24 0 V0 16 255 10 1835 0 ?25 0 26 27 0 0 1 18 255 11 999
 0 28 0 29 8 ?1 17 255 28 0 30 31 32 11 33 34 0 35 -18 29 530 0 36 11 37 23 ?1 1
7 36 0 38 39 40 29 41 42 0 43 -18 37 515 0 44 29 45 46 ?1 29 23 532 0 29 46 8 .0
75 -.003175 -.01843833454217765 29 46 517 0 37 47 23 .069275 -.003175 .000519167
271088792 29 47 514 0 45 48 46 .069275 -.003175 -.01211916727108882 18 45 512 0
 41 37 49 47 ?1 29 48 499 0 49 50 47 .075 .003175 -.01843833454217765 18 49 497
 0 51 45 52 48 ?1 29 50 496 0 52 53 48 .069275 .003175 .000519167271088792 18 52
 494 0 54 49 55 50 ?1 29 53 493 0 55 56 50 .069275 .003175 -.01211916727108882 1
8 55 491 0 57 52 58 53 ?1 29 56 484 0 58 59 53 .075 .003175 .0068383345421776 18
 58 482 0 60 55 61 56 ?1 29 59 481 0 61 62 56 .075 -.003175 .0068383345421776 18
 61 479 0 63 58 64 59 ?1 29 62 75 0 65 66 59 .075 -.003175 .0508 18 65 66 0 67 6
8 69 62 ?1 29 66 76 0 69 70 62 -.075 -.003175 .0508 18 69 67 0 71 65 72 66 ?1 29
 70 77 0 72 73 66 -.075 -.003175 -.0508 18 72 68 0 74 69 75 70 ?1 29 73 78 0 75
 76 70 .075 -.003175 -.0508 18 75 69 0 77 72 78 73 ?1 29 76 32 0 64 79 73 .075 .
003175 .0508 18 64 30 0 80 61 68 76 ?1 29 79 29 0 68 81 76 -.075 .003175 .0508 1
8 68 27 0 31 64 65 79 ?1 29 81 1133 0 78 82 79 .075 .003175 -.04445 18 78 1056 0
 32 75 83 81 ?1 29 82 1138 0 83 84 81 .075 .098425 -.0508 18 83 1062 0 85 78 86
 82 ?1 29 84 1139 0 86 87 82 -.075 .098425 -.0508 18 86 1064 0 88 83 89 84 ?1 29
 87 1140 0 89 90 84 -.075 .098425 -.04445 18 89 1066 0 91 86 92 87 ?1 29 90 1141
 0 92 0 87 .075 .098425 -.04445 18 92 1067 0 93 89 0 90 ?1 17 93 0 94 95 33 92 9
6 97 0 98 -15 255 94 1099 0 99 100 0 17 95 0 94 99 93 89 98 101 0 0 +17 33 0 94
 93 99 78 28 34 0 96 +17 96 0 102 103 104 78 93 97 0 0 +16 97 1024 0 ?96 105 106
 107 0 0 1 17 98 0 108 109 110 92 95 101 0 104 -15 108 1102 0 109 111 0 17 109 0
 108 112 98 83 104 113 0 114 -17 110 0 108 98 112 89 115 116 0 95 -16 101 1041 0
 ?95 116 113 117 0 0 1 17 104 0 102 96 85 92 109 113 0 0 +15 102 89 0 77 118 0 1
7 85 0 102 104 77 83 119 120 0 109 -16 113 1026 0 ?104 101 121 122 0 0 1 16 121
 1335 0 ?123 113 124 125 0 0 1 30 255 122 1129 0 113 126 117 0 +.075 .098425 -.0
4445 0 0 1 31 126 1592 0 127 128 122 0 +.06 .006825 -.0508 0 0 -1 -1 0 0 .002 30
 117 1128 0 101 122 129 0 +-.075 .098425 -.04445 -1 0 0 30 129 1127 0 116 117 13
0 0 +-.075 .098425 -.04445 -4370956789862825e-30 0 -1 16 116 1036 0 ?115 106 101
 129 0 0 1 30 130 1126 0 106 129 131 0 +-.075 .098425 -.0508 1 0 0 16 106 1031 0
 ?114 97 116 130 0 0 1 30 131 1119 0 105 130 107 0 +-.075 .098425 -.04445 0 -1 0
 16 105 1039 0 ?99 34 97 131 0 0 1 30 107 1118 0 97 131 132 0 +.075 .098425 -.04
445 0 -1 0 30 132 1117 0 34 107 133 0 +0 .003175 -.04445 1 0 0 16 34 1040 0 ?33
 134 105 132 0 0 1 31 133 949 0 135 132 136 0 +-.015 -.001675 -.0058 0 1 0 0 0 1
 .0125 16 135 915 0 ?137 138 134 133 0 0 1 31 136 948 0 134 133 139 0 +-.015 -.0
03175 -.0058 0 1 0 0 0 1 .0125 16 134 919 0 ?140 135 34 136 0 0 1 31 139 859 0 1
41 136 142 0 +-.03578460969082655 .003175 -.0178 0 1 0 0 0 1 .0015 16 141 768 0
 ?143 144 145 139 0 0 1 31 142 858 0 145 139 146 0 +-.03578460969082655 -.003175
 -.0178 0 1 0 0 0 1 .0015 16 145 765 0 ?147 141 148 142 0 0 1 31 146 857 0 148 1
42 149 0 +-.002009618943233415 .003175 -.0133 0 1 0 0 0 1 .0015 16 148 786 0 ?15
0 145 151 146 0 0 1 31 149 856 0 151 146 152 0 +-.002009618943233415 -.003175 -.
0133 0 1 0 0 0 1 .0015 16 151 783 0 ?153 148 154 149 0 0 1 31 152 855 0 155 149
 156 0 +-.015 .003175 .0182 0 1 0 0 0 1 .0015 16 155 732 0 ?157 158 159 152 0 0
 1 31 156 854 0 159 152 160 0 +-.015 -.003175 .0182 0 1 0 0 0 1 .0015 16 159 729
 0 ?161 155 162 156 0 0 1 31 160 853 0 162 156 163 0 +-.0279903810567666 .003175
 -.0133 0 1 0 0 0 1 .0015 16 162 750 0 ?164 159 144 160 0 0 1 31 163 852 0 144 1
60 165 0 +-.0279903810567666 -.003175 -.0133 0 1 0 0 0 1 .0015 16 144 747 0 ?166
 162 141 163 0 0 1 31 165 851 0 154 163 167 0 +.00578460969082654 .003175 -.0178
 0 1 0 0 0 1 .0015 16 154 714 0 ?168 151 169 165 0 0 1 31 167 850 0 169 165 170
 0 +.00578460969082654 -.003175 -.0178 0 1 0 0 0 1 .0015 16 169 711 0 ?171 154 1
38 167 0 0 1 31 170 849 0 172 167 173 0 +-.015 -.003175 .0092 0 1 0 0 0 1 .0015
 16 172 801 0 ?174 175 158 170 0 0 1 31 173 848 0 158 170 176 0 +-.015 .003175 .
0092 0 1 0 0 0 1 .0015 16 158 804 0 ?177 172 155 173 0 0 1 31 176 428 0 178 173
 179 0 +.067 -.003175 -.0408 0 1 0 0 0 1 .002 16 178 253 0 ?180 181 182 176 0 0
 1 31 179 427 0 182 176 183 0 +.067 .003175 -.0408 0 1 0 0 0 1 .002 16 182 256 0
 ?184 178 185 179 0 0 1 31 183 426 0 175 179 186 0 +.0699 .003175 -.0058 0 1 0 0
 0 1 .00635 16 175 492 0 ?187 188 172 183 0 0 1 31 186 424 0 189 183 190 0 +-.06
725 .003175 -.0058 0 1 0 0 0 1 .0015 16 189 351 0 ?191 192 193 186 0 0 1 31 190
 423 0 193 186 194 0 +-.06725 -.003175 -.0058 0 1 0 0 0 1 .0015 16 193 348 0 ?19
5 189 196 190 0 0 1 31 194 422 0 196 190 197 0 +.0319 .003175 -.0058 0 1 0 0 0 1
 .00635 16 196 369 0 ?198 193 188 194 0 0 1 31 197 421 0 188 194 199 0 +.0319 -.
003175 -.0058 0 1 0 0 0 1 .00635 16 188 366 0 ?200 196 175 197 0 0 1 31 199 420
 0 185 197 201 0 +.067 .003175 .0292 0 1 0 0 0 -1 .002 16 185 315 0 ?202 182 203
 199 0 0 1 31 201 419 0 203 199 204 0 +.067 -.003175 .0292 0 1 0 0 0 -1 .002 16
 203 312 0 ?205 185 192 201 0 0 1 31 204 418 0 192 201 206 0 +-.015 .003175 -.00
58 0 1 0 0 0 1 .011 16 192 333 0 ?207 203 189 204 0 0 1 30 206 7 0 208 204 209 0
 +.075 .003175 -.0508 -2731847993664265e-31 0 -1 16 208 5 0 ?210 211 212 206 212
 212 1 30 209 15 0 211 206 213 0 +-.075 .003175 -.0508 2731847993664265e-31 0 1
 16 211 1000 0 ?31 214 208 209 0 0 1 30 213 19 0 214 209 215 0 +-.075 .003175 .0
508 1 0 0 16 214 17 0 ?80 216 211 213 0 0 1 30 215 74 0 217 213 218 0 +.075 -.00
3175 -.0508 -2731847993664265e-31 0 -1 16 217 62 0 ?219 220 181 215 181 181 1 30
 218 73 0 220 215 221 0 +-.075 -.003175 -.0508 -1 0 0 16 220 58 0 ?74 222 217 21
8 0 0 1 30 221 72 0 222 218 223 0 +-.075 -.003175 -.0508 2731847993664265e-31 0
 1 16 222 54 0 ?71 224 220 221 0 0 1 30 223 71 0 224 221 225 0 +-.075 -.003175 .
0508 1 0 0 16 224 50 0 ?67 212 222 223 0 0 1 30 225 95 0 216 223 226 0 +.075 .00
3175 .0508 0 -1 0 16 216 79 0 ?227 228 214 225 0 0 1 30 226 96 0 228 225 229 0 +
-.075 .003175 .0508 0 -1 0 16 228 80 0 ?230 231 216 226 0 0 1 30 229 97 0 231 22
6 232 0 +-.075 .003175 -.0508 0 -1 0 16 231 81 0 ?233 120 228 229 0 0 1 30 232 9
8 0 120 229 234 0 +.075 .003175 -.0508 0 -1 0 16 120 82 0 ?119 235 231 232 0 0 1
 31 234 184 0 235 232 236 0 +.0699 -.003175 -.0058 0 1 0 0 0 1 .00635 16 235 513
 0 ?237 238 120 234 0 0 1 30 236 487 0 238 234 239 0 +.075 .003175 .006838334542
1776 0 1 0 16 238 485 0 ?240 241 235 236 0 0 1 31 239 502 0 241 236 242 0 +.0686
5 .003175 -.01843833454217765 0 1 0 0 0 1 .00635 16 241 500 0 ?51 243 238 239 0
 0 1 31 242 508 0 243 239 244 0 +.06865 .003175 .0068383345421776 0 1 0 0 0 1 .0
0635 16 243 506 0 ?54 245 241 242 0 0 1 30 244 520 0 245 242 246 0 +.069275 -.00
3175 -.01211916727108882 0 1 0 16 245 518 0 ?57 247 243 244 0 0 1 30 246 526 0 2
47 244 248 0 -.069275 -.003175 .000519167271088792 0 1 0 16 247 524 0 ?44 42 245
 246 0 0 1 31 248 535 0 42 246 249 0 -.06865 -.003175 -.01843833454217765 0 1 0
 0 0 1 .00635 16 42 533 0 ?41 250 247 248 0 0 1 31 249 541 0 250 248 251 0 -.068
65 -.003175 .0068383345421776 0 1 0 0 0 1 .00635 16 250 539 0 ?63 252 42 249 0 0
 1 30 251 547 0 252 249 253 0 -.075 .003175 -.01843833454217765 0 1 0 16 252 545
 0 ?43 254 250 251 0 0 1 31 253 903 0 138 251 255 0 --.015 -.001675 -.0058 0 1 0
 0 0 1 .011 16 138 918 0 ?256 169 135 253 0 0 1 31 255 1199 0 257 253 258 0 +.06
 .006825 -.04445 0 0 1 1 0 0 .002 16 257 1527 0 ?259 260 127 255 0 0 1 31 258 12
06 0 260 255 261 0 +-.06 .037625 -.04445 0 0 1 1 0 0 .002 16 260 1503 0 ?262 263
 257 258 0 0 1 31 261 1213 0 263 258 264 0 +-1387778780781446e-32 .037625 -.0444
5 0 0 1 1 0 0 .002 16 263 1479 0 ?265 266 260 261 0 0 1 31 264 1220 0 266 261 26
7 0 +.06 .037625 -.04445 0 0 1 1 0 0 .002 16 266 1455 0 ?268 269 263 264 0 0 1 3
1 267 1227 0 269 264 270 0 +.06 .088425 -.04445 0 0 1 1 0 0 .002 16 269 1431 0 ?
271 272 266 267 0 0 1 31 270 1234 0 272 267 273 0 +-1387778780781446e-32 .088425
 -.04445 0 0 1 1 0 0 .002 16 272 1407 0 ?274 275 269 270 0 0 1 31 273 1241 0 275
 270 276 0 +-.06 .088425 -.04445 0 0 1 1 0 0 .002 16 275 1383 0 ?277 124 272 273
 0 0 1 31 276 1248 0 124 273 125 0 +-.06 .006825 -.04445 0 0 1 1 0 0 .002 16 124
 1359 0 ?278 121 275 276 0 0 1 31 125 1255 0 121 276 279 0 +-1387778780781446e-3
2 .006825 -.04445 0 0 1 1 0 0 .002 31 279 1817 0 254 125 280 0 --.0335 -.0006749
99999999898 -.0058 0 1 0 0 0 1 .0025 16 254 1814 0 ?281 282 252 279 0 0 1 31 280
 1824 0 282 279 283 0 +.0035 -.003175 -.0058 0 1 0 0 0 1 .00500000000000012 16 2
82 1821 0 ?284 26 254 280 0 0 1 31 283 1831 0 26 280 27 0 +-.0335 -.003175 -.005
8 0 1 0 0 0 1 .00500000000000012 16 26 1828 0 ?285 10 282 283 0 0 1 31 27 1838 0
 10 283 22 0 -.0035 -.000674999999999898 -.0058 0 1 0 0 0 1 .0025 31 22 1900 0 2
86 27 7 0 +.015 .073425 -.04445 0 0 1 1 0 0 .0015 16 286 1955 0 ?287 21 288 22 0
 0 1 17 287 0 289 287 287 0 290 286 0 0 +16 21 1931 0 ?291 292 286 7 0 0 1 16 28
8 1932 0 ?293 286 294 295 0 0 1 17 293 0 296 293 293 0 297 288 0 0 +16 294 1956
 0 ?298 288 0 299 0 0 1 31 295 1987 0 288 0 299 0 +-.045 .073425 -.0508 0 0 -1 1
 0 0 .0015 31 299 1986 0 294 295 300 0 +.015 .073425 -.0508 0 0 -1 -1 0 0 .0015
 31 300 1791 0 292 299 301 0 +-.0335 .003175 -.0058 0 1 0 0 0 1 .0025 16 292 176
0 0 ?302 303 21 300 0 0 1 31 301 1790 0 303 300 304 0 +.0035 .003175 -.0058 0 1
 0 0 0 1 .0025 16 303 1736 0 ?305 306 292 301 0 0 1 31 304 1609 0 307 301 308 0
 +.06 .088425 -.0508 0 0 -1 1 0 0 .002 16 307 1432 0 ?309 310 311 304 0 0 1 31 3
08 1607 0 311 304 312 0 +.06 .037625 -.0508 0 0 -1 -1 0 0 .002 16 311 1456 0 ?31
3 307 314 308 0 0 1 31 312 1605 0 314 308 315 0 +-1387778780781446e-32 .037625 -
.0508 0 0 -1 -1 0 0 .002 16 314 1480 0 ?316 311 306 312 0 0 1 31 315 1603 0 306
 312 317 0 +-.06 .037625 -.0508 0 0 -1 1 0 0 .002 16 306 1504 0 ?318 314 303 315
 0 0 1 31 317 1601 0 319 315 320 0 +-1387778780781446e-32 .006825 -.0508 0 0 -1
 -1 0 0 .002 16 319 1336 0 ?321 127 322 317 0 0 1 31 320 1599 0 322 317 323 0 +-
.06 .006825 -.0508 0 0 -1 1 0 0 .002 16 322 1360 0 ?324 319 325 320 0 0 1 31 323
 1597 0 325 320 128 0 +-.06 .088425 -.0508 0 0 -1 -1 0 0 .002 16 325 1384 0 ?326
 322 310 323 0 0 1 31 128 1595 0 310 323 126 0 +-1387778780781446e-32 .088425 -.
0508 0 0 -1 1 0 0 .002 16 310 1408 0 ?327 325 307 128 0 0 1 17 327 0 328 327 327
 0 329 310 0 0 +15 328 1420 0 327 330 0 17 329 0 331 329 329 0 327 310 0 0 -15 3
31 1300 0 329 332 333 14 255 332 88 334 ?335 118 336 5 337 -0 0 335 118 24 15 33
3 1292 0 338 332 339 17 338 0 333 338 338 0 309 307 0 0 -15 339 1284 0 340 332 3
41 17 340 0 339 340 340 0 313 311 0 0 -15 341 1276 0 342 332 343 17 342 0 341 34
2 342 0 316 314 0 0 -15 343 1268 0 344 332 345 17 344 0 343 344 344 0 318 306 0
 0 -15 345 1260 0 346 332 347 17 346 0 345 346 346 0 348 127 0 0 -15 347 87 0 74
 332 0 17 74 0 347 88 119 72 349 220 0 233 +17 88 0 347 114 74 86 233 231 0 115
 -17 119 0 347 74 114 75 85 120 0 0 +17 349 0 350 351 352 75 74 220 0 119 -17 23
3 0 353 71 115 72 88 231 0 352 +15 353 85 0 35 335 0 17 71 0 353 354 233 69 352
 222 0 230 +17 115 0 353 233 91 86 110 116 0 112 +17 352 0 350 349 355 72 71 222
 0 0 -15 350 49 0 355 356 0 17 355 0 350 352 357 69 67 224 0 0 -17 357 0 350 355
 63 65 219 217 0 0 -17 67 0 358 359 230 65 355 224 0 227 +15 358 83 0 67 360 0 1
7 359 0 358 361 67 64 227 216 0 362 -17 230 0 358 67 361 69 354 228 0 355 +17 22
7 0 363 219 362 65 359 216 0 357 +15 363 243 0 219 16 0 17 219 0 363 240 227 61
 357 217 0 364 +17 362 0 363 227 240 64 210 208 0 0 -17 240 0 363 362 219 58 364
 238 0 210 +17 210 0 30 54 80 58 362 208 0 0 +15 30 1003 0 28 365 366 17 54 0 30
 367 210 52 60 243 0 187 +17 80 0 30 210 31 64 361 214 0 359 +17 31 0 30 80 28 6
8 35 211 0 354 +17 361 0 358 230 359 68 80 214 0 0 -17 35 0 353 91 354 11 31 211
 0 99 -17 354 0 353 35 71 68 230 228 0 361 -17 91 0 353 115 35 89 99 105 0 110 -
17 99 0 94 33 95 11 91 105 0 0 +17 367 0 30 51 54 55 187 175 0 368 -17 60 0 369
 364 370 58 54 243 0 240 -17 187 0 371 44 57 52 367 175 0 370 +15 371 300 0 187
 372 0 17 44 0 371 373 187 37 370 247 0 237 +17 57 0 371 187 373 55 40 245 0 367
 +17 370 0 369 60 374 52 44 247 0 0 -15 369 561 0 374 375 0 17 374 0 369 370 364
 37 63 250 0 0 -17 364 0 369 374 60 61 240 238 0 0 -17 63 0 350 357 237 61 374 2
50 0 219 +17 237 0 350 63 41 37 373 235 0 374 +17 41 0 350 237 351 45 36 42 0 37
3 +17 373 0 371 57 44 45 237 235 0 40 -17 40 0 38 36 368 45 57 245 0 0 -15 38 58
2 0 368 376 0 17 368 0 38 40 39 55 51 241 0 0 -17 39 0 38 368 36 49 43 252 0 0 -
17 51 0 30 32 367 49 368 241 0 103 +17 32 0 30 28 51 78 103 212 0 33 +17 103 0 1
02 43 96 49 32 212 0 39 -17 43 0 102 77 103 29 39 252 0 351 +16 212 498 0 ?32 20
8 224 206 208 208 1 17 77 0 102 85 43 75 351 181 0 349 +17 351 0 350 41 349 29 7
7 181 0 0 -16 181 531 0 ?77 217 178 215 217 217 1 14 376 581 377 ?378 375 38 5 3
79 +0 0 378 375 24 81 1 377 2205 380 376 381 0 334 382 383 14 378 807 382 ?384 3
76 385 5 386 -0 0 384 376 24 14 375 560 387 ?376 388 369 5 389 +0 0 376 388 24 5
1 255 379 593 0 376 389 20 0 +.06865 -.003175 -.01843833454217765 0 1 0 .00635 0
 0 1 13 24 34 0 0 0 0 0 0 9 16 14 16 244 390 ?118 0 363 5 391 -118 118 118 0 24
 81 1 390 2211 380 16 392 0 387 393 394 14 118 90 393 ?332 16 102 5 391 -16 16 3
32 16 24 50 255 391 94 0 118 337 389 0 +.075 .003175 -.0508 -1 0 273184799366426
5e-31 2731847993664265e-31 0 1 50 337 93 0 332 395 391 0 +-.075 .003175 -.0508 0
 0 1 1 0 0 51 389 572 0 375 391 379 0 +.06865 -.003175 .0068383345421776 0 1 0 .
00635 0 0 1 50 395 92 0 335 396 337 0 +-.075 .003175 -.0508 1 0 -273184799366426
5e-31 -2731847993664265e-31 0 -1 14 335 86 397 ?360 332 353 5 395 -0 0 360 332 2
4 50 396 91 0 360 398 395 0 +-.075 .003175 .0508 0 0 -1 -1 0 0 14 360 84 399 ?36
5 335 358 5 396 -0 0 365 335 24 50 398 70 0 356 400 396 0 +0 -.003175 0 0 1 0 0
 0 1 14 356 48 401 ?402 365 403 5 398 -0 0 402 365 24 50 400 3 0 365 404 398 0 +
0 .003175 0 0 1 0 0 0 1 14 365 1 405 ?356 360 406 5 400 +0 0 356 360 24 51 404 3
97 0 407 408 400 0 +-.015 -.003175 -.0058 0 1 0 .011 0 0 1 14 407 336 409 ?410 4
11 412 5 404 -0 0 410 411 24 51 408 400 0 410 413 404 0 +.067 -.003175 .0292 0 1
 0 .002 0 0 1 14 410 318 414 ?372 407 415 5 408 -0 0 372 407 24 51 413 403 0 402
 416 408 0 +.0319 -.003175 -.0058 0 1 0 .00635 0 0 1 14 402 372 417 ?411 356 418
 5 413 -0 0 411 356 24 51 416 406 0 411 419 413 0 +-.06725 -.003175 -.0058 0 1 0
 .0015 0 0 1 14 411 354 420 ?407 402 421 5 416 -0 0 407 402 24 51 419 409 0 372
 422 416 0 +.0699 -.003175 -.0058 0 1 0 .00635 0 0 1 14 372 297 423 ?388 410 371
 5 419 -0 0 388 410 24 51 422 410 0 388 386 419 0 +.067 -.003175 -.0408 0 1 0 .0
02 0 0 1 14 388 259 424 ?375 372 425 5 422 -0 0 375 372 24 51 386 830 0 378 426
 422 0 +-.015 -.003175 .0092 0 1 0 .0015 0 0 1 51 426 835 0 427 428 386 0 +.0057
8460969082654 -.003175 -.0178 0 1 0 .0015 0 0 1 14 427 717 429 ?430 431 432 5 42
6 -0 0 430 431 24 51 428 838 0 433 434 426 0 +-.0279903810567666 -.003175 -.0133
 0 1 0 .0015 0 0 1 14 433 753 435 ?431 436 437 5 428 -0 0 431 436 24 51 434 841
 0 431 438 428 0 +-.015 -.003175 .0182 0 1 0 .0015 0 0 1 14 431 735 439 ?427 433
 440 5 434 -0 0 427 433 24 51 438 844 0 384 441 434 0 +-.002009618943233415 -.00
3175 -.0133 0 1 0 .0015 0 0 1 14 384 789 442 ?436 378 443 5 438 -0 0 436 378 24
 51 441 847 0 436 444 438 0 +-.03578460969082655 -.003175 -.0178 0 1 0 .0015 0 0
 1 14 436 771 445 ?433 384 446 5 441 -0 0 433 384 24 51 444 944 0 447 448 441 0
 --.015 -.001675 -.0058 0 -1 0 .0125 0 0 -1 14 447 931 449 ?100 430 450 5 444 +0
 0 100 430 24 50 448 946 0 430 451 444 0 +-.015 -.001675 -.0058 0 1 0 0 0 1 14 4
30 923 452 ?447 427 453 5 448 -0 0 447 427 24 50 451 1109 0 100 454 448 0 +-.075
 .098425 -.04445 0 0 1 1 0 0 14 100 1096 455 ?111 447 456 5 451 +0 0 111 447 24
 50 454 1113 0 111 457 451 0 +0 .098425 0 0 -1 0 0 0 -1 14 111 1100 458 ?459 100
 108 5 454 -0 0 459 100 24 51 457 1565 0 459 460 454 0 +.06 .006825 .0508 0 0 -1
 .002 -1 0 0 14 459 1536 461 ?462 111 463 5 457 -0 0 462 111 24 51 460 1570 0 33
0 464 457 0 +-1387778780781446e-32 .088425 .0508 0 0 -1 .002 -1 0 0 14 330 1416
 465 ?466 467 468 5 460 -0 0 466 467 24 51 464 1573 0 466 469 460 0 +-.06 .08842
5 .0508 0 0 -1 .002 -1 0 0 14 466 1392 470 ?471 330 472 5 464 -0 0 471 330 24 51
 469 1576 0 471 473 464 0 +-.06 .006825 .0508 0 0 -1 .002 -1 0 0 14 471 1368 474
 ?475 466 476 5 469 -0 0 475 466 24 51 473 1579 0 475 477 469 0 +-13877787807814
46e-32 .006825 .0508 0 0 -1 .002 -1 0 0 14 475 1344 478 ?479 471 480 5 473 -0 0
 479 471 24 51 477 1582 0 462 481 473 0 +-.06 .037625 .0508 0 0 -1 .002 -1 0 0 1
4 462 1512 482 ?483 459 484 5 477 -0 0 483 459 24 51 481 1585 0 483 485 477 0 +-
1387778780781446e-32 .037625 .0508 0 0 -1 .002 -1 0 0 14 483 1488 486 ?487 462 4
88 5 481 -0 0 487 462 24 51 485 1588 0 487 489 481 0 +.06 .037625 .0508 0 0 -1 .
002 -1 0 0 14 487 1464 490 ?467 483 491 5 485 -0 0 467 483 24 51 489 1591 0 467
 492 485 0 +.06 .088425 .0508 0 0 -1 .002 -1 0 0 14 467 1440 493 ?330 487 494 5
 489 -0 0 330 487 24 51 492 1786 0 479 495 489 0 +-.0335 .098425 -.0058 0 -1 0 .
0025 0 0 -1 14 479 1769 496 ?497 475 498 5 492 -0 0 497 475 24 51 495 1787 0 497
 499 492 0 +.0035 .098425 -.0058 0 -1 0 .0025 0 0 -1 14 497 1745 500 ?501 479 50
2 5 495 -0 0 501 479 24 51 499 1981 0 503 504 495 0 +.015 .073425 .0508 0 0 -1 .
0015 -1 0 0 14 503 1964 505 ?506 19 289 5 499 -0 0 506 19 24 51 504 1982 0 506 0
 499 0 +-.045 .073425 .0508 0 0 -1 .0015 -1 0 0 14 506 1940 507 ?0 503 508 5 504
 -0 0 0 503 24 81 1 507 2277 380 506 509 0 505 510 511 15 508 1943 0 291 506 296
 17 291 0 508 291 291 0 512 21 0 0 +15 296 1944 0 293 506 0 17 512 0 456 512 512
 0 291 21 0 0 -15 456 1906 0 512 100 513 15 513 1899 0 290 100 514 17 290 0 513
 290 290 0 287 286 0 0 -15 514 1254 0 515 100 516 17 515 0 514 515 515 0 123 121
 0 0 -15 516 1247 0 517 100 518 17 517 0 516 517 517 0 278 124 0 0 -15 518 1240
 0 519 100 520 17 519 0 518 519 519 0 277 275 0 0 -15 520 1233 0 521 100 522 17
 521 0 520 521 521 0 274 272 0 0 -15 522 1226 0 523 100 524 17 523 0 522 523 523
 0 271 269 0 0 -15 524 1219 0 525 100 526 17 525 0 524 525 525 0 268 266 0 0 -15
 526 1212 0 527 100 528 17 527 0 526 527 527 0 265 263 0 0 -15 528 1205 0 529 10
0 530 17 529 0 528 529 529 0 262 260 0 0 -15 530 1198 0 531 100 94 17 531 0 530
 531 531 0 259 257 0 0 -17 259 0 463 259 259 0 531 257 0 0 +15 463 1539 0 259 45
9 532 15 532 1540 0 348 459 0 17 348 0 532 348 348 0 346 127 0 0 +16 127 1528 0
 ?348 257 319 126 0 0 1 17 262 0 484 262 262 0 529 260 0 0 +15 484 1515 0 262 46
2 533 15 533 1516 0 318 462 0 17 318 0 533 318 318 0 344 306 0 0 +17 265 0 488 2
65 265 0 527 263 0 0 +15 488 1491 0 265 483 534 15 534 1492 0 316 483 0 17 316 0
 534 316 316 0 342 314 0 0 +17 268 0 491 268 268 0 525 266 0 0 +15 491 1467 0 26
8 487 535 15 535 1468 0 313 487 0 17 313 0 535 313 313 0 340 311 0 0 +17 271 0 4
94 271 271 0 523 269 0 0 +15 494 1443 0 271 467 536 15 536 1444 0 309 467 0 17 3
09 0 536 309 309 0 338 307 0 0 +17 274 0 468 274 274 0 521 272 0 0 +15 468 1419
 0 274 330 328 17 277 0 472 277 277 0 519 275 0 0 +15 472 1395 0 277 466 537 15
 537 1396 0 326 466 0 17 326 0 537 326 326 0 538 325 0 0 +17 538 0 539 538 538 0
 326 325 0 0 -15 539 1308 0 538 332 331 17 278 0 476 278 278 0 517 124 0 0 +15 4
76 1371 0 278 471 540 15 540 1372 0 324 471 0 17 324 0 540 324 324 0 541 322 0 0
 +17 541 0 542 541 541 0 324 322 0 0 -15 542 1316 0 541 332 539 17 123 0 480 123
 123 0 515 121 0 0 +15 480 1347 0 123 475 543 15 543 1348 0 321 475 0 17 321 0 5
43 321 321 0 544 319 0 0 +17 544 0 545 544 544 0 321 319 0 0 -15 545 1324 0 544
 332 542 80 7 CCCCCDI12 legal_owners0 16 1 lCZ1 380 546 547 9000 1 1 1 1 1 1 1 1
 0 FFFFTFTFFFFFFFFF1 81 3 509 2276 548 506 549 507 550 551 552 0 0 81 1 505 2275
 380 503 550 0 500 507 553 81 1 510 2279 380 19 551 0 507 554 555 82 255 1 511 -
769588941 14 19 1863 510 ?503 501 556 5 6 +0 0 503 501 24 81 3 551 2278 548 19 5
57 510 509 558 559 0 0 81 1 554 2281 380 501 558 0 510 0 560 82 1 555 -792198863
 14 501 1849 554 ?19 497 561 5 20 +0 0 19 497 24 81 3 558 2280 548 501 562 554 5
51 0 563 0 0 82 1 560 -793575119 80 3 548 564 565 9000 0 0 0 0 3 5 0 0 0 FFFFTFF
FFFFFFFFF1 1 1 81 1 562 2073 566 501 0 558 567 557 568 82 6 563 0 901387368 3119
9376 0 0 0 80 1 566 0 569 8001 0 0 0 0 3 5 0 0 0 FFFFTFTFFFFFFFFF2 81 1 567 2072
 566 497 0 570 571 562 572 81 1 557 2074 566 19 0 551 562 573 574 83 255 3 568 .
898039215686275 .92156862745098 .929411764705882 81 1 573 2075 566 503 0 550 557
 549 575 83 3 574 .898039215686275 .92156862745098 .929411764705882 81 3 550 227
4 548 503 573 505 570 509 576 0 0 81 1 549 2076 566 506 0 509 573 0 577 83 3 575
 .898039215686275 .92156862745098 .929411764705882 83 3 577 .898039215686275 .92
156862745098 .929411764705882 81 3 570 2272 548 497 567 500 578 550 579 0 0 82 6
 576 0 901387368 31199376 0 0 0 81 1 500 2273 380 497 570 0 496 505 580 81 3 578
 2270 548 479 571 496 581 570 582 0 0 82 6 579 0 901387368 31199376 0 0 0 81 1 5
71 2071 566 479 0 578 583 567 584 81 1 496 2271 380 479 578 0 493 500 585 81 3 5
81 2268 548 467 586 493 587 578 588 0 0 82 6 582 0 901387368 31199376 0 0 0 81 1
 586 2066 566 467 0 581 589 590 591 81 1 493 2269 380 467 581 0 490 496 592 81 3
 587 2266 548 487 589 490 593 581 594 0 0 82 6 588 0 901209975 31199376 0 0 0 81
 1 589 2065 566 487 0 587 595 586 596 81 1 490 2267 380 487 587 0 486 493 597 81
 3 593 2264 548 483 595 486 598 587 599 0 0 82 6 594 0 901209975 31199376 0 0 0
 81 1 595 2064 566 483 0 593 600 589 601 81 1 486 2265 380 483 593 0 482 490 602
 81 3 598 2262 548 462 600 482 603 593 604 0 0 82 6 599 0 901209975 31199376 0 0
 0 81 1 600 2063 566 462 0 598 605 595 606 81 1 482 2263 380 462 598 0 478 486 6
07 81 3 603 2260 548 475 583 478 608 598 609 0 0 82 6 604 0 901209975 31199376 0
 0 0 81 1 583 2070 566 475 0 603 610 571 611 81 1 478 2261 380 475 603 0 474 482
 612 81 3 608 2258 548 471 610 474 613 603 614 0 0 82 6 609 0 901209975 31199376
 0 0 0 81 1 610 2069 566 471 0 608 615 583 616 81 1 474 2259 380 471 608 0 470 4
78 617 81 3 613 2256 548 466 615 470 618 608 619 0 0 82 6 614 0 901209975 311993
76 0 0 0 81 1 615 2068 566 466 0 613 590 610 620 81 1 470 2257 380 466 613 0 465
 474 621 81 3 618 2254 548 330 590 465 622 613 623 0 0 82 6 619 0 901209975 3119
9376 0 0 0 81 1 590 2067 566 330 0 618 586 615 624 81 1 465 2255 380 330 618 0 4
61 470 625 81 3 622 2252 548 459 605 461 626 618 627 0 0 82 6 623 0 901209975 31
199376 0 0 0 81 1 605 2062 566 459 0 622 628 600 629 81 1 461 2253 380 459 622 0
 458 465 630 81 3 626 2250 548 111 628 458 631 622 632 0 0 82 6 627 0 901209975
 31199376 0 0 0 81 1 628 2061 566 111 0 626 633 605 634 81 1 458 2251 380 111 62
6 0 455 461 635 81 3 631 2248 548 100 633 455 636 626 637 0 0 82 6 632 0 9010502
53 31199376 0 0 0 81 1 633 2060 566 100 0 631 638 628 639 81 1 455 2249 380 100
 631 0 452 458 640 81 3 636 2246 548 430 641 452 642 631 643 0 0 82 6 637 0 9013
87368 31199376 0 0 0 81 1 641 2058 566 430 0 636 644 638 645 81 1 452 2247 380 4
30 636 0 449 455 646 81 3 642 2244 548 447 638 449 647 636 648 0 0 82 6 643 0 90
1050253 31199376 0 0 0 81 1 638 2059 566 447 0 642 641 633 649 81 1 449 2245 380
 447 642 0 445 452 650 81 3 647 2242 548 436 651 445 652 642 653 0 0 82 6 648 0
 901050253 31199376 0 0 0 81 1 651 2054 566 436 0 647 654 655 656 81 1 445 2243
 380 436 647 0 442 449 657 81 3 652 2240 548 384 654 442 658 647 659 0 0 82 6 65
3 0 901005739 31199376 0 0 0 81 1 654 2053 566 384 0 652 660 651 661 81 1 442 22
41 380 384 652 0 439 445 662 81 3 658 2238 548 431 663 439 664 652 665 0 0 82 6
 659 0 901005739 31199376 0 0 0 81 1 663 2056 566 431 0 658 655 644 666 81 1 439
 2239 380 431 658 0 435 442 667 81 3 664 2236 548 433 655 435 668 658 669 0 0 82
 6 665 0 901005739 31199376 0 0 0 81 1 655 2055 566 433 0 664 651 663 670 81 1 4
35 2237 380 433 664 0 429 439 671 81 3 668 2234 548 427 644 429 672 664 673 0 0
 82 6 669 0 901005739 31199376 0 0 0 81 1 644 2057 566 427 0 668 663 641 674 81
 1 429 2235 380 427 668 0 424 435 675 81 3 672 2232 548 388 676 424 677 668 678
 0 0 82 6 673 0 901005739 31199376 0 0 0 81 1 676 2049 566 388 0 672 679 680 681
 81 1 424 2233 380 388 672 0 423 429 682 81 3 677 2230 548 372 679 423 683 672 6
84 0 0 82 6 678 0 900849182 31199376 0 0 0 81 1 679 2048 566 372 0 677 685 676 6
86 81 1 423 2231 380 372 677 0 420 424 687 81 3 683 2228 548 411 688 420 689 677
 690 0 0 82 6 684 0 900849182 31199376 0 0 0 81 1 688 2045 566 411 0 683 691 692
 693 81 1 420 2229 380 411 683 0 417 423 694 81 3 689 2226 548 402 691 417 695 6
83 696 0 0 82 6 690 0 900849182 31199376 0 0 0 81 1 691 2044 566 402 0 689 697 6
88 698 81 1 417 2227 380 402 689 0 414 420 699 81 3 695 2224 548 410 685 414 700
 689 701 0 0 82 6 696 0 900849182 31199376 0 0 0 81 1 685 2047 566 410 0 695 692
 679 702 81 1 414 2225 380 410 695 0 409 417 703 81 3 700 2222 548 407 692 409 7
04 695 705 0 0 82 6 701 0 900849182 31199376 0 0 0 81 1 692 2046 566 407 0 700 6
88 685 706 81 1 409 2223 380 407 700 0 405 414 707 81 3 704 2220 548 365 708 405
 709 700 710 0 0 82 6 705 0 901050253 31199376 0 0 0 81 1 708 2042 566 365 0 704
 711 697 712 81 1 405 2221 380 365 704 0 401 409 713 81 3 709 2218 548 356 697 4
01 714 704 715 0 0 82 6 710 0 901387368 31199376 0 0 0 81 1 697 2043 566 356 0 7
09 708 691 716 81 1 401 2219 380 356 709 0 399 405 717 81 3 714 2216 548 360 711
 399 718 709 719 0 0 82 6 715 0 901387368 31199376 0 0 0 81 1 711 2041 566 360 0
 714 720 708 721 81 1 399 2217 380 360 714 0 397 401 722 81 3 718 2214 548 335 7
20 397 723 714 724 0 0 82 6 719 0 2063775554 31198731 0 0 0 81 1 720 2040 566 33
5 0 718 725 711 726 81 1 397 2215 380 335 718 0 393 399 727 81 3 723 2212 548 11
8 728 393 392 718 729 0 0 82 6 724 0 901050253 31199376 0 0 0 81 1 728 2038 566
 118 0 723 730 725 731 81 1 393 2213 380 118 723 0 390 397 732 81 3 392 2210 548
 16 730 390 733 723 734 0 0 82 6 729 0 901050253 31199376 0 0 0 81 1 730 2037 56
6 16 0 392 0 728 735 81 3 733 2208 548 375 680 387 736 392 737 0 0 82 6 734 0 90
0849182 31199376 0 0 0 81 1 680 2050 566 375 0 733 676 738 739 81 1 387 2209 380
 375 733 0 382 390 740 81 3 736 2206 548 378 660 382 381 733 741 0 0 82 6 737 0
 900849182 31199376 0 0 0 81 1 660 2052 566 378 0 736 738 654 742 81 1 382 2207
 380 378 736 0 377 387 743 81 3 381 2204 548 376 738 377 744 736 745 0 0 82 6 74
1 0 901005739 31199376 0 0 0 81 1 738 2051 566 376 0 381 680 660 746 81 3 744 22
02 548 332 725 334 0 381 747 0 0 82 6 745 0 900849182 31199376 0 0 0 81 1 725 20
39 566 332 0 744 728 720 748 81 1 334 2203 380 332 744 0 0 377 749 82 6 747 0 90
1387368 31199376 0 0 0 82 1 749 165544243 83 3 748 .898039215686275 .92156862745
098 .929411764705882 83 3 746 .898039215686275 .92156862745098 .929411764705882
 82 1 743 -1106968281 83 3 742 .898039215686275 .92156862745098 .929411764705882
 82 1 740 -1146748635 83 3 739 .898039215686275 .92156862745098 .929411764705882
 83 3 735 .898039215686275 .92156862745098 .929411764705882 82 1 732 170590507 8
3 3 731 .898039215686275 .92156862745098 .929411764705882 82 1 727 170918187 83
 3 726 .898039215686275 .92156862745098 .929411764705882 82 1 722 1617166459 83
 3 721 .898039215686275 .92156862745098 .929411764705882 82 1 717 171180337 83 3
 716 .898039215686275 .92156862745098 .929411764705882 82 1 713 171311408 83 3 7
12 .898039215686275 .92156862745098 .929411764705882 82 1 707 -1199963863 83 3 7
06 .898039215686275 .92156862745098 .929411764705882 82 1 703 -1203896028 83 3 7
02 .898039215686275 .92156862745098 .929411764705882 82 1 699 -1192099548 83 3 6
98 .898039215686275 .92156862745098 .929411764705882 82 1 694 -1196031708 83 3 6
93 .898039215686275 .92156862745098 .929411764705882 82 1 687 -1158872795 83 3 6
86 .898039215686275 .92156862745098 .929411764705882 82 1 682 -1207893724 83 3 6
81 .898039215686275 .92156862745098 .929411764705882 82 1 675 -1087241945 83 3 6
74 .898039215686275 .92156862745098 .929411764705882 82 1 671 -1099038425 83 3 6
70 .898039215686275 .92156862745098 .929411764705882 82 1 667 -1102970585 83 3 6
66 .898039215686275 .92156862745098 .929411764705882 82 1 662 -1091174105 83 3 6
61 .898039215686275 .92156862745098 .929411764705882 82 1 657 -1095106265 83 3 6
56 .898039215686275 .92156862745098 .929411764705882 82 1 650 -1026883287 83 3 6
49 .898039215686275 .92156862745098 .929411764705882 82 1 646 -1021640407 83 3 6
45 .898039215686275 .92156862745098 .929411764705882 82 1 640 -988937933 83 3 63
9 .898039215686275 .92156862745098 .929411764705882 82 1 635 -995753685 83 3 634
 .898039215686275 .92156862745098 .929411764705882 82 1 630 -937426643 83 3 629
 .898039215686275 .92156862745098 .929411764705882 82 1 625 -921632467 83 3 624
 .898039215686275 .92156862745098 .929411764705882 82 1 621 -925564627 83 3 620
 .898039215686275 .92156862745098 .929411764705882 82 1 617 -929496787 83 3 616
 .898039215686275 .92156862745098 .929411764705882 82 1 612 -933428947 83 3 611
 .898039215686275 .92156862745098 .929411764705882 82 1 607 -905903827 83 3 606
 .898039215686275 .92156862745098 .929411764705882 82 1 602 -909835987 83 3 601
 .898039215686275 .92156862745098 .929411764705882 82 1 597 -913768147 83 3 596
 .898039215686275 .92156862745098 .929411764705882 82 1 592 -917700307 83 3 591
 .898039215686275 .92156862745098 .929411764705882 82 1 585 -809041615 83 3 584
 .898039215686275 .92156862745098 .929411764705882 82 1 580 -813039311 83 3 572
 .898039215686275 .92156862745098 .929411764705882 79 255 15 569 SDL/TYSA_COLOUR
79 18 565 DOWNSTREAM_FACE_ID15 561 1850 0 750 501 751 52 20 1856 752 501 379 6 0
 --.0335 -.000674999999999898 -.0058 0 -1 0 .0025 .707106781186551 .707106781186
545 0 0 -1 81 2 752 1857 753 20 0 0 0 18 754 755 80 2 753 756 757 8044 0 0 0 0 3
 5 0 0 0 FFFFTFFFTTFFFFFF3 2 81 2 18 1871 753 6 0 0 752 0 758 759 84 255 6 754 B
AAAAB83 3 755 0 .0025000000000001 .00250000000000012 84 6 758 BAAAAB83 3 759 0 .
0025000000000001 .002500000000000115 79 17 757 SDL/TYSA_BLEND_ID17 750 0 561 750
 750 0 285 26 0 0 -15 751 1851 0 760 501 0 17 760 0 751 760 760 0 281 254 0 0 -1
7 281 0 498 281 281 0 760 254 0 0 +15 498 1815 0 281 479 761 15 761 1772 0 302 4
79 0 17 302 0 761 302 302 0 762 292 0 0 +17 762 0 763 762 762 0 302 292 0 0 -15
 763 1722 0 762 365 30 17 285 0 403 285 285 0 750 26 0 0 +15 403 1829 0 285 356
 764 15 764 1822 0 284 356 765 17 284 0 764 284 284 0 766 282 0 0 +15 765 909 0
 140 356 767 17 140 0 765 140 140 0 768 134 0 0 +15 767 662 0 171 356 769 17 171
 0 767 171 171 0 770 169 0 0 +15 769 655 0 161 356 771 17 161 0 769 161 161 0 77
2 159 0 0 +15 771 648 0 166 356 773 17 166 0 771 166 166 0 774 144 0 0 +15 773 6
41 0 147 356 775 17 147 0 773 147 147 0 776 145 0 0 +15 775 634 0 153 356 777 17
 153 0 775 153 153 0 778 151 0 0 +15 777 627 0 174 356 779 17 174 0 777 174 174
 0 780 172 0 0 +15 779 189 0 180 356 781 17 180 0 779 180 180 0 782 178 0 0 +15
 781 176 0 205 356 783 17 205 0 781 205 205 0 784 203 0 0 +15 783 162 0 195 356
 785 17 195 0 783 195 195 0 786 193 0 0 +15 785 155 0 200 356 350 17 200 0 785 2
00 200 0 787 188 0 0 +17 787 0 418 787 787 0 200 188 0 0 -15 418 375 0 787 402 7
88 15 788 376 0 198 402 0 17 198 0 788 198 198 0 789 196 0 0 +17 789 0 790 789 7
89 0 198 196 0 0 -15 790 203 0 789 365 0 17 786 0 421 786 786 0 195 193 0 0 -15
 421 357 0 786 411 791 15 791 358 0 191 411 0 17 191 0 791 191 191 0 792 189 0 0
 +17 792 0 793 792 792 0 191 189 0 0 -15 793 210 0 792 365 790 17 784 0 415 784
 784 0 205 203 0 0 -15 415 321 0 784 410 794 15 794 322 0 202 410 0 17 202 0 794
 202 202 0 795 185 0 0 +17 795 0 796 795 795 0 202 185 0 0 -15 796 224 0 795 365
 797 15 797 217 0 798 365 793 17 798 0 797 798 798 0 207 192 0 0 -17 207 0 799 2
07 207 0 798 192 0 0 +15 799 340 0 207 407 0 17 782 0 425 782 782 0 180 178 0 0
 -15 425 262 0 782 388 800 15 800 263 0 184 388 0 17 184 0 800 184 184 0 801 182
 0 0 +17 801 0 802 801 801 0 184 182 0 0 -15 802 237 0 801 365 796 17 780 0 385
 780 780 0 174 172 0 0 -15 385 810 0 780 378 803 15 803 811 0 177 378 0 17 177 0
 803 177 177 0 804 158 0 0 +17 804 0 805 804 804 0 177 158 0 0 -15 805 670 0 804
 365 802 17 778 0 443 778 778 0 153 151 0 0 -15 443 792 0 778 384 806 15 806 793
 0 150 384 0 17 150 0 806 150 150 0 807 148 0 0 +17 807 0 808 807 807 0 150 148
 0 0 -15 808 677 0 807 365 805 17 776 0 446 776 776 0 147 145 0 0 -15 446 774 0
 776 436 809 15 809 775 0 143 436 0 17 143 0 809 143 143 0 810 141 0 0 +17 810 0
 811 810 810 0 143 141 0 0 -15 811 684 0 810 365 808 17 774 0 437 774 774 0 166
 144 0 0 -15 437 756 0 774 433 812 15 812 757 0 164 433 0 17 164 0 812 164 164 0
 813 162 0 0 +17 813 0 814 813 813 0 164 162 0 0 -15 814 691 0 813 365 811 17 77
2 0 440 772 772 0 161 159 0 0 -15 440 738 0 772 431 815 15 815 739 0 157 431 0 1
7 157 0 815 157 157 0 816 155 0 0 +17 816 0 817 816 816 0 157 155 0 0 -15 817 69
8 0 816 365 814 17 770 0 432 770 770 0 171 169 0 0 -15 432 720 0 770 427 818 15
 818 721 0 168 427 0 17 168 0 818 168 168 0 819 154 0 0 +17 819 0 366 819 819 0
 168 154 0 0 -15 366 705 0 819 365 817 17 768 0 820 768 768 0 140 134 0 0 -15 82
0 935 0 768 447 0 17 766 0 556 766 766 0 284 282 0 0 -15 556 1864 0 766 19 821 1
5 821 1865 0 822 19 0 17 822 0 821 822 822 0 25 10 0 0 -17 25 0 502 25 25 0 822
 10 0 0 +15 502 1836 0 25 497 823 15 823 1748 0 305 497 0 17 305 0 823 305 305 0
 824 303 0 0 +17 824 0 406 824 824 0 305 303 0 0 -15 406 1728 0 824 365 763 82 6
 559 0 901387368 31199376 0 0 0 82 1 553 -765591245 82 6 552 0 901387368 3119937
6 0 0 0 79 14 547 SWEntUnchanged15 289 1967 0 287 503 825 15 825 1968 0 298 503
 0 17 298 0 825 298 298 0 826 294 0 0 +17 826 0 827 826 826 0 298 294 0 0 -15 82
7 1912 0 826 332 545 15 453 925 0 828 430 829 17 828 0 453 828 828 0 137 135 0 0
 -15 829 926 0 830 430 0 17 830 0 829 830 830 0 256 138 0 0 -17 256 0 412 256 25
6 0 830 138 0 0 +15 412 901 0 256 407 799 17 137 0 450 137 137 0 828 135 0 0 +15
 450 934 0 137 447 820 82 1 394 -1154285275 82 1 383 -1144782555 17 112 0 108 11
0 109 86 114 106 0 0 -17 114 0 347 119 88 83 112 106 0 0 +15 336 1920 0 297 332
 827 17 297 0 336 297 297 0 293 288 0 0 -19 17 100 0 1 0 9 5 0 S0 74 4 CI16 inde
x_map_offset0 0 1 dCCZ20 15 11 0 0 558 554 831 832 833 18 834 835 13 549 2 0 0 0
 0 0 0 0 0 0 81 2 831 1173 836 1 0 832 0 0 0 837 81 2 832 1182 838 1 831 833 0 0
 0 839 81 2 833 1183 840 1 832 834 0 0 841 0 81 1 834 2004 842 1 833 835 0 0 843
 81 2 835 2030 844 1 834 13 0 0 0 845 81 2 13 2035 846 1 835 2 0 0 0 0 80 2 846
 847 848 9000 0 0 0 0 3 5 0 0 0 FFTFFFFFFFFFFFFF9 1 79 16 848 BODY_RECIPE_200180
 2 844 849 850 9000 0 0 0 0 3 5 0 0 0 FFTFFFFFFFFFFFFF9 1 82 1 845 1 79 24 850 B
ODY_IN_LIGHTWEIGHT_PERM80 1 842 851 852 9000 1 1 1 1 1 1 1 1 0 FFTFFFFFFFFFFFFF1
 82 1 843 2288 79 10 852 BODY_MATCH80 2 840 853 854 9000 0 0 0 0 3 5 0 0 0 FFTFT
TTFFTFFFFFF10 10 98 255 15 841 67 111 114 116 97 114 45 69 120 116 114 117 105 1
14 54 79 23 854 SWIMPLICITBODYNAME_ID_U80 2 838 855 856 9000 0 0 0 0 3 5 0 0 0 F
FTFFFFFFFFFFFFF9 1 82 1 839 207 79 30 856 LAST_BODY_MODIFYING_FEATURE_ID80 2 836
 857 858 9000 0 0 0 0 3 5 0 0 0 FFTFFFFFFFFFFTFF9 1 82 1 837 270 79 19 858 ENT_T
IME_STAMP_200180 2 12 859 860 9000 0 0 0 0 3 5 0 0 0 FFTFFFFFFFFFFFFF9 1 82 1 14
 108 79 12 860 ATOM_ID_20011 0 
